<?xml version="1.0" encoding="UTF-8"?>
<svg width="260px" height="260px" viewBox="0 0 200 250" version="1.1" xmlns="http://www.w3.org/2000/svg" xmlns:xlink="http://www.w3.org/1999/xlink">
    <title>BitKeep-LOGO22</title>
    <g id="页面-1" stroke="none" stroke-width="1" fill="none" fill-rule="evenodd">
        <g id="BitKeep-LOGO22" fill="#5D4BE8" fill-rule="nonzero">
            <path d="M120.2,103.9 L104.3,95.1 C103,94.4 101.5,94.4 100.2,95.1 L84.3,103.9 C82.9,104.6 82.1,106.1 82.1,107.6 L82.1,124.9 C82.1,126.4 82.9,127.9 84.3,128.6 L100.2,137.4 C101.5,138.1 103,138.1 104.3,137.4 L120.2,128.6 C121.6,127.9 122.4,126.4 122.4,124.9 L122.4,107.6 C122.4,106.1 121.5,104.7 120.2,103.9 Z" id="路径"></path>
            <path d="M198.7,54 L109.1,2.2 C105.2,-0.1 100.3,-0.1 96.4,2.2 L85.7,8.4 L85.7,34.1 L85.7,56.1 L85.7,81.8 L99.5,73.8 C101.5,72.7 103.9,72.7 105.9,73.8 L138.2,92.5 C140.2,93.6 141.4,95.7 141.4,98 L141.4,135.4 C141.4,137.7 140.2,139.8 138.2,140.9 L105.9,159.6 C104.3,160.5 102.3,160.7 100.6,160.1 L66.7,140.6 C65,139.4 64,137.5 64,135.4 L64,106.6 L64,101.3 L64,101.3 L64,21 L6.8,54 C2.9,56.3 0.4,60.5 0.4,65 L0.4,168.5 C0.4,173 2.8,177.2 6.8,179.5 L96.4,231.3 C100.3,233.6 105.2,233.6 109.1,231.3 L198.7,179.5 C202.6,177.2 205.1,173 205.1,168.5 L205.1,65.1 C205.1,60.5 202.6,56.3 198.7,54 Z M105.9,207.5 C103.9,208.6 101.5,208.6 99.5,207.5 L25.8,164.9 C23.8,163.8 22.6,161.7 22.6,159.4 L22.6,74.3 C22.6,72 23.8,69.9 25.8,68.8 L41.7,59.6 L41.7,106.8 L41.7,106.8 L41.7,146 C41.7,149.8 43.7,153.3 47,155.2 L102.7,187.4 L102.9,187.3 L122,198.3 L105.9,207.5 Z M182.8,159.4 C182.8,161.7 181.6,163.8 179.6,164.9 L144.2,185.3 L125.1,174.3 L158.3,155.1 C161.6,153.2 163.6,149.7 163.6,145.9 L163.6,87.6 C163.6,83.8 161.6,80.3 158.3,78.4 L108,49.3 L108,27.3 L179.6,68.7 C181.6,69.8 182.8,71.9 182.8,74.2 L182.8,159.4 Z" id="形状"></path>
        </g>
    </g>
</svg>