<svg width="24" height="24" viewBox="0 0 24 24" fill="none" xmlns="http://www.w3.org/2000/svg">
    <path d="M12 24C18.6274 24 24 18.6274 24 12C24 5.37258 18.6274 0 12 0C5.37258 0 0 5.37258 0 12C0 18.6274 5.37258 24 12 24Z" fill="#F3BA2F"/>
    <path d="M9.17079 10.8368L12.0006 8.00701L14.8318 10.8382L16.4784 9.19167L12.0006 4.71387L7.52421 9.19021L9.17079 10.8368ZM4.71484 11.9996L6.36142 10.353L8.00799 11.9996L6.36142 13.6462L4.71484 11.9996ZM9.17079 13.1624L12.0006 15.9922L14.8318 13.1609L16.4784 14.8068L12.0006 19.2853L7.52421 14.809L7.52203 14.8068L9.17079 13.1624ZM15.9931 11.9996L17.6397 10.353L19.2863 11.9996L17.6397 13.6462L15.9931 11.9996ZM13.6704 11.9981H13.6719V11.9996L12.0006 13.6709L10.3314 12.0025L10.3285 11.9996L10.3314 11.9974L10.6236 11.7045L10.7656 11.5624L12.0006 10.3282L13.6712 11.9989L13.6704 11.9981Z" fill="white"/>
</svg>
