<svg 
 xmlns="http://www.w3.org/2000/svg"
 xmlns:xlink="http://www.w3.org/1999/xlink"
 width="1900px" height="734px">
<path fill-rule="evenodd"  stroke="rgb(218, 232, 255)" stroke-width="100px" stroke-linecap="butt" stroke-linejoin="miter" fill="none"
 d="M1902.000,562.000 C1760.615,562.000 1646.000,447.385 1646.000,306.000 C1646.000,164.615 1760.615,50.000 1902.000,50.000 "/>
<path fill-rule="evenodd"  fill="rgb(217, 231, 249)"
 d="M267.000,664.000 C264.238,664.000 262.000,661.761 262.000,659.000 C262.000,656.238 264.238,654.000 267.000,654.000 C269.761,654.000 272.000,656.238 272.000,659.000 C272.000,661.761 269.761,664.000 267.000,664.000 ZM267.000,644.000 C264.238,644.000 262.000,641.761 262.000,639.000 C262.000,636.238 264.238,634.000 267.000,634.000 C269.761,634.000 272.000,636.238 272.000,639.000 C272.000,641.761 269.761,644.000 267.000,644.000 ZM267.000,624.000 C264.238,624.000 262.000,621.761 262.000,619.000 C262.000,616.238 264.238,614.000 267.000,614.000 C269.761,614.000 272.000,616.238 272.000,619.000 C272.000,621.761 269.761,624.000 267.000,624.000 ZM267.000,604.000 C264.238,604.000 262.000,601.761 262.000,599.000 C262.000,596.239 264.238,594.000 267.000,594.000 C269.761,594.000 272.000,596.239 272.000,599.000 C272.000,601.761 269.761,604.000 267.000,604.000 ZM267.000,584.000 C264.238,584.000 262.000,581.761 262.000,579.000 C262.000,576.238 264.238,574.000 267.000,574.000 C269.761,574.000 272.000,576.238 272.000,579.000 C272.000,581.761 269.761,584.000 267.000,584.000 ZM247.000,684.000 C244.239,684.000 242.000,681.761 242.000,679.000 C242.000,676.238 244.239,674.000 247.000,674.000 C249.761,674.000 252.000,676.238 252.000,679.000 C252.000,681.761 249.761,684.000 247.000,684.000 ZM247.000,664.000 C244.239,664.000 242.000,661.761 242.000,659.000 C242.000,656.238 244.239,654.000 247.000,654.000 C249.761,654.000 252.000,656.238 252.000,659.000 C252.000,661.761 249.761,664.000 247.000,664.000 ZM247.000,644.000 C244.239,644.000 242.000,641.761 242.000,639.000 C242.000,636.238 244.239,634.000 247.000,634.000 C249.761,634.000 252.000,636.238 252.000,639.000 C252.000,641.761 249.761,644.000 247.000,644.000 ZM247.000,624.000 C244.239,624.000 242.000,621.761 242.000,619.000 C242.000,616.238 244.239,614.000 247.000,614.000 C249.761,614.000 252.000,616.238 252.000,619.000 C252.000,621.761 249.761,624.000 247.000,624.000 ZM247.000,604.000 C244.239,604.000 242.000,601.761 242.000,599.000 C242.000,596.239 244.239,594.000 247.000,594.000 C249.761,594.000 252.000,596.239 252.000,599.000 C252.000,601.761 249.761,604.000 247.000,604.000 ZM247.000,584.000 C244.239,584.000 242.000,581.761 242.000,579.000 C242.000,576.238 244.239,574.000 247.000,574.000 C249.761,574.000 252.000,576.238 252.000,579.000 C252.000,581.761 249.761,584.000 247.000,584.000 ZM227.000,684.000 C224.239,684.000 222.000,681.761 222.000,679.000 C222.000,676.238 224.239,674.000 227.000,674.000 C229.761,674.000 232.000,676.238 232.000,679.000 C232.000,681.761 229.761,684.000 227.000,684.000 ZM227.000,664.000 C224.239,664.000 222.000,661.761 222.000,659.000 C222.000,656.238 224.239,654.000 227.000,654.000 C229.761,654.000 232.000,656.238 232.000,659.000 C232.000,661.761 229.761,664.000 227.000,664.000 ZM227.000,644.000 C224.239,644.000 222.000,641.761 222.000,639.000 C222.000,636.238 224.239,634.000 227.000,634.000 C229.761,634.000 232.000,636.238 232.000,639.000 C232.000,641.761 229.761,644.000 227.000,644.000 ZM227.000,624.000 C224.239,624.000 222.000,621.761 222.000,619.000 C222.000,616.238 224.239,614.000 227.000,614.000 C229.761,614.000 232.000,616.238 232.000,619.000 C232.000,621.761 229.761,624.000 227.000,624.000 ZM227.000,604.000 C224.239,604.000 222.000,601.761 222.000,599.000 C222.000,596.239 224.239,594.000 227.000,594.000 C229.761,594.000 232.000,596.239 232.000,599.000 C232.000,601.761 229.761,604.000 227.000,604.000 ZM227.000,584.000 C224.239,584.000 222.000,581.761 222.000,579.000 C222.000,576.238 224.239,574.000 227.000,574.000 C229.761,574.000 232.000,576.238 232.000,579.000 C232.000,581.761 229.761,584.000 227.000,584.000 ZM207.000,684.000 C204.238,684.000 202.000,681.761 202.000,679.000 C202.000,676.238 204.238,674.000 207.000,674.000 C209.761,674.000 212.000,676.238 212.000,679.000 C212.000,681.761 209.761,684.000 207.000,684.000 ZM207.000,664.000 C204.238,664.000 202.000,661.761 202.000,659.000 C202.000,656.238 204.238,654.000 207.000,654.000 C209.761,654.000 212.000,656.238 212.000,659.000 C212.000,661.761 209.761,664.000 207.000,664.000 ZM207.000,644.000 C204.238,644.000 202.000,641.761 202.000,639.000 C202.000,636.238 204.238,634.000 207.000,634.000 C209.761,634.000 212.000,636.238 212.000,639.000 C212.000,641.761 209.761,644.000 207.000,644.000 ZM207.000,624.000 C204.238,624.000 202.000,621.761 202.000,619.000 C202.000,616.238 204.238,614.000 207.000,614.000 C209.761,614.000 212.000,616.238 212.000,619.000 C212.000,621.761 209.761,624.000 207.000,624.000 ZM207.000,604.000 C204.238,604.000 202.000,601.761 202.000,599.000 C202.000,596.239 204.238,594.000 207.000,594.000 C209.761,594.000 212.000,596.239 212.000,599.000 C212.000,601.761 209.761,604.000 207.000,604.000 ZM207.000,584.000 C204.238,584.000 202.000,581.761 202.000,579.000 C202.000,576.238 204.238,574.000 207.000,574.000 C209.761,574.000 212.000,576.238 212.000,579.000 C212.000,581.761 209.761,584.000 207.000,584.000 ZM187.000,684.000 C184.239,684.000 182.000,681.761 182.000,679.000 C182.000,676.238 184.239,674.000 187.000,674.000 C189.761,674.000 192.000,676.238 192.000,679.000 C192.000,681.761 189.761,684.000 187.000,684.000 ZM187.000,664.000 C184.239,664.000 182.000,661.761 182.000,659.000 C182.000,656.238 184.239,654.000 187.000,654.000 C189.761,654.000 192.000,656.238 192.000,659.000 C192.000,661.761 189.761,664.000 187.000,664.000 ZM187.000,644.000 C184.239,644.000 182.000,641.761 182.000,639.000 C182.000,636.238 184.239,634.000 187.000,634.000 C189.761,634.000 192.000,636.238 192.000,639.000 C192.000,641.761 189.761,644.000 187.000,644.000 ZM187.000,624.000 C184.239,624.000 182.000,621.761 182.000,619.000 C182.000,616.238 184.239,614.000 187.000,614.000 C189.761,614.000 192.000,616.238 192.000,619.000 C192.000,621.761 189.761,624.000 187.000,624.000 ZM187.000,604.000 C184.239,604.000 182.000,601.761 182.000,599.000 C182.000,596.239 184.239,594.000 187.000,594.000 C189.761,594.000 192.000,596.239 192.000,599.000 C192.000,601.761 189.761,604.000 187.000,604.000 ZM187.000,584.000 C184.239,584.000 182.000,581.761 182.000,579.000 C182.000,576.238 184.239,574.000 187.000,574.000 C189.761,574.000 192.000,576.238 192.000,579.000 C192.000,581.761 189.761,584.000 187.000,584.000 ZM167.000,684.000 C164.239,684.000 162.000,681.761 162.000,679.000 C162.000,676.238 164.239,674.000 167.000,674.000 C169.761,674.000 172.000,676.238 172.000,679.000 C172.000,681.761 169.761,684.000 167.000,684.000 ZM167.000,664.000 C164.239,664.000 162.000,661.761 162.000,659.000 C162.000,656.238 164.239,654.000 167.000,654.000 C169.761,654.000 172.000,656.238 172.000,659.000 C172.000,661.761 169.761,664.000 167.000,664.000 ZM167.000,644.000 C164.239,644.000 162.000,641.761 162.000,639.000 C162.000,636.238 164.239,634.000 167.000,634.000 C169.761,634.000 172.000,636.238 172.000,639.000 C172.000,641.761 169.761,644.000 167.000,644.000 ZM167.000,624.000 C164.239,624.000 162.000,621.761 162.000,619.000 C162.000,616.238 164.239,614.000 167.000,614.000 C169.761,614.000 172.000,616.238 172.000,619.000 C172.000,621.761 169.761,624.000 167.000,624.000 ZM167.000,604.000 C164.239,604.000 162.000,601.761 162.000,599.000 C162.000,596.239 164.239,594.000 167.000,594.000 C169.761,594.000 172.000,596.239 172.000,599.000 C172.000,601.761 169.761,604.000 167.000,604.000 ZM167.000,584.000 C164.239,584.000 162.000,581.761 162.000,579.000 C162.000,576.238 164.239,574.000 167.000,574.000 C169.761,574.000 172.000,576.238 172.000,579.000 C172.000,581.761 169.761,584.000 167.000,584.000 ZM147.000,684.000 C144.238,684.000 142.000,681.761 142.000,679.000 C142.000,676.238 144.238,674.000 147.000,674.000 C149.761,674.000 152.000,676.238 152.000,679.000 C152.000,681.761 149.761,684.000 147.000,684.000 ZM147.000,664.000 C144.238,664.000 142.000,661.761 142.000,659.000 C142.000,656.238 144.238,654.000 147.000,654.000 C149.761,654.000 152.000,656.238 152.000,659.000 C152.000,661.761 149.761,664.000 147.000,664.000 ZM147.000,644.000 C144.238,644.000 142.000,641.761 142.000,639.000 C142.000,636.238 144.238,634.000 147.000,634.000 C149.761,634.000 152.000,636.238 152.000,639.000 C152.000,641.761 149.761,644.000 147.000,644.000 ZM147.000,624.000 C144.238,624.000 142.000,621.761 142.000,619.000 C142.000,616.238 144.238,614.000 147.000,614.000 C149.761,614.000 152.000,616.238 152.000,619.000 C152.000,621.761 149.761,624.000 147.000,624.000 ZM147.000,604.000 C144.238,604.000 142.000,601.761 142.000,599.000 C142.000,596.239 144.238,594.000 147.000,594.000 C149.761,594.000 152.000,596.239 152.000,599.000 C152.000,601.761 149.761,604.000 147.000,604.000 ZM147.000,584.000 C144.238,584.000 142.000,581.761 142.000,579.000 C142.000,576.238 144.238,574.000 147.000,574.000 C149.761,574.000 152.000,576.238 152.000,579.000 C152.000,581.761 149.761,584.000 147.000,584.000 ZM125.000,684.000 C122.238,684.000 120.000,681.761 120.000,679.000 C120.000,676.238 122.238,674.000 125.000,674.000 C127.761,674.000 130.000,676.238 130.000,679.000 C130.000,681.761 127.761,684.000 125.000,684.000 ZM125.000,664.000 C122.238,664.000 120.000,661.761 120.000,659.000 C120.000,656.238 122.238,654.000 125.000,654.000 C127.761,654.000 130.000,656.238 130.000,659.000 C130.000,661.761 127.761,664.000 125.000,664.000 ZM125.000,644.000 C122.238,644.000 120.000,641.761 120.000,639.000 C120.000,636.238 122.238,634.000 125.000,634.000 C127.761,634.000 130.000,636.238 130.000,639.000 C130.000,641.761 127.761,644.000 125.000,644.000 ZM125.000,624.000 C122.238,624.000 120.000,621.761 120.000,619.000 C120.000,616.238 122.238,614.000 125.000,614.000 C127.761,614.000 130.000,616.238 130.000,619.000 C130.000,621.761 127.761,624.000 125.000,624.000 ZM125.000,604.000 C122.238,604.000 120.000,601.761 120.000,599.000 C120.000,596.239 122.238,594.000 125.000,594.000 C127.761,594.000 130.000,596.239 130.000,599.000 C130.000,601.761 127.761,604.000 125.000,604.000 ZM125.000,584.000 C122.238,584.000 120.000,581.761 120.000,579.000 C120.000,576.238 122.238,574.000 125.000,574.000 C127.761,574.000 130.000,576.238 130.000,579.000 C130.000,581.761 127.761,584.000 125.000,584.000 ZM105.000,684.000 C102.239,684.000 100.000,681.761 100.000,679.000 C100.000,676.238 102.239,674.000 105.000,674.000 C107.761,674.000 110.000,676.238 110.000,679.000 C110.000,681.761 107.761,684.000 105.000,684.000 ZM105.000,664.000 C102.239,664.000 100.000,661.761 100.000,659.000 C100.000,656.238 102.239,654.000 105.000,654.000 C107.761,654.000 110.000,656.238 110.000,659.000 C110.000,661.761 107.761,664.000 105.000,664.000 ZM105.000,644.000 C102.239,644.000 100.000,641.761 100.000,639.000 C100.000,636.238 102.239,634.000 105.000,634.000 C107.761,634.000 110.000,636.238 110.000,639.000 C110.000,641.761 107.761,644.000 105.000,644.000 ZM105.000,624.000 C102.239,624.000 100.000,621.761 100.000,619.000 C100.000,616.238 102.239,614.000 105.000,614.000 C107.761,614.000 110.000,616.238 110.000,619.000 C110.000,621.761 107.761,624.000 105.000,624.000 ZM105.000,604.000 C102.239,604.000 100.000,601.761 100.000,599.000 C100.000,596.239 102.239,594.000 105.000,594.000 C107.761,594.000 110.000,596.239 110.000,599.000 C110.000,601.761 107.761,604.000 105.000,604.000 ZM105.000,584.000 C102.239,584.000 100.000,581.761 100.000,579.000 C100.000,576.238 102.239,574.000 105.000,574.000 C107.761,574.000 110.000,576.238 110.000,579.000 C110.000,581.761 107.761,584.000 105.000,584.000 ZM85.000,684.000 C82.239,684.000 80.000,681.761 80.000,679.000 C80.000,676.238 82.239,674.000 85.000,674.000 C87.761,674.000 90.000,676.238 90.000,679.000 C90.000,681.761 87.761,684.000 85.000,684.000 ZM85.000,664.000 C82.239,664.000 80.000,661.761 80.000,659.000 C80.000,656.238 82.239,654.000 85.000,654.000 C87.761,654.000 90.000,656.238 90.000,659.000 C90.000,661.761 87.761,664.000 85.000,664.000 ZM85.000,644.000 C82.239,644.000 80.000,641.761 80.000,639.000 C80.000,636.238 82.239,634.000 85.000,634.000 C87.761,634.000 90.000,636.238 90.000,639.000 C90.000,641.761 87.761,644.000 85.000,644.000 ZM85.000,624.000 C82.239,624.000 80.000,621.761 80.000,619.000 C80.000,616.238 82.239,614.000 85.000,614.000 C87.761,614.000 90.000,616.238 90.000,619.000 C90.000,621.761 87.761,624.000 85.000,624.000 ZM85.000,604.000 C82.239,604.000 80.000,601.761 80.000,599.000 C80.000,596.239 82.239,594.000 85.000,594.000 C87.761,594.000 90.000,596.239 90.000,599.000 C90.000,601.761 87.761,604.000 85.000,604.000 ZM85.000,584.000 C82.239,584.000 80.000,581.761 80.000,579.000 C80.000,576.238 82.239,574.000 85.000,574.000 C87.761,574.000 90.000,576.238 90.000,579.000 C90.000,581.761 87.761,584.000 85.000,584.000 ZM65.000,684.000 C62.238,684.000 60.000,681.761 60.000,679.000 C60.000,676.238 62.238,674.000 65.000,674.000 C67.761,674.000 70.000,676.238 70.000,679.000 C70.000,681.761 67.761,684.000 65.000,684.000 ZM65.000,664.000 C62.238,664.000 60.000,661.761 60.000,659.000 C60.000,656.238 62.238,654.000 65.000,654.000 C67.761,654.000 70.000,656.238 70.000,659.000 C70.000,661.761 67.761,664.000 65.000,664.000 ZM65.000,644.000 C62.238,644.000 60.000,641.761 60.000,639.000 C60.000,636.238 62.238,634.000 65.000,634.000 C67.761,634.000 70.000,636.238 70.000,639.000 C70.000,641.761 67.761,644.000 65.000,644.000 ZM65.000,624.000 C62.238,624.000 60.000,621.761 60.000,619.000 C60.000,616.238 62.238,614.000 65.000,614.000 C67.761,614.000 70.000,616.238 70.000,619.000 C70.000,621.761 67.761,624.000 65.000,624.000 ZM65.000,604.000 C62.238,604.000 60.000,601.761 60.000,599.000 C60.000,596.239 62.238,594.000 65.000,594.000 C67.761,594.000 70.000,596.239 70.000,599.000 C70.000,601.761 67.761,604.000 65.000,604.000 ZM65.000,584.000 C62.238,584.000 60.000,581.761 60.000,579.000 C60.000,576.238 62.238,574.000 65.000,574.000 C67.761,574.000 70.000,576.238 70.000,579.000 C70.000,581.761 67.761,584.000 65.000,584.000 ZM45.000,684.000 C42.239,684.000 40.000,681.761 40.000,679.000 C40.000,676.238 42.239,674.000 45.000,674.000 C47.761,674.000 50.000,676.238 50.000,679.000 C50.000,681.761 47.761,684.000 45.000,684.000 ZM45.000,664.000 C42.239,664.000 40.000,661.761 40.000,659.000 C40.000,656.238 42.239,654.000 45.000,654.000 C47.761,654.000 50.000,656.238 50.000,659.000 C50.000,661.761 47.761,664.000 45.000,664.000 ZM45.000,644.000 C42.239,644.000 40.000,641.761 40.000,639.000 C40.000,636.238 42.239,634.000 45.000,634.000 C47.761,634.000 50.000,636.238 50.000,639.000 C50.000,641.761 47.761,644.000 45.000,644.000 ZM45.000,624.000 C42.239,624.000 40.000,621.761 40.000,619.000 C40.000,616.238 42.239,614.000 45.000,614.000 C47.761,614.000 50.000,616.238 50.000,619.000 C50.000,621.761 47.761,624.000 45.000,624.000 ZM45.000,604.000 C42.239,604.000 40.000,601.761 40.000,599.000 C40.000,596.239 42.239,594.000 45.000,594.000 C47.761,594.000 50.000,596.239 50.000,599.000 C50.000,601.761 47.761,604.000 45.000,604.000 ZM45.000,584.000 C42.239,584.000 40.000,581.761 40.000,579.000 C40.000,576.238 42.239,574.000 45.000,574.000 C47.761,574.000 50.000,576.238 50.000,579.000 C50.000,581.761 47.761,584.000 45.000,584.000 ZM25.000,684.000 C22.239,684.000 20.000,681.761 20.000,679.000 C20.000,676.238 22.239,674.000 25.000,674.000 C27.761,674.000 30.000,676.238 30.000,679.000 C30.000,681.761 27.761,684.000 25.000,684.000 ZM25.000,664.000 C22.239,664.000 20.000,661.761 20.000,659.000 C20.000,656.238 22.239,654.000 25.000,654.000 C27.761,654.000 30.000,656.238 30.000,659.000 C30.000,661.761 27.761,664.000 25.000,664.000 ZM25.000,644.000 C22.239,644.000 20.000,641.761 20.000,639.000 C20.000,636.238 22.239,634.000 25.000,634.000 C27.761,634.000 30.000,636.238 30.000,639.000 C30.000,641.761 27.761,644.000 25.000,644.000 ZM25.000,624.000 C22.239,624.000 20.000,621.761 20.000,619.000 C20.000,616.238 22.239,614.000 25.000,614.000 C27.761,614.000 30.000,616.238 30.000,619.000 C30.000,621.761 27.761,624.000 25.000,624.000 ZM25.000,604.000 C22.239,604.000 20.000,601.761 20.000,599.000 C20.000,596.239 22.239,594.000 25.000,594.000 C27.761,594.000 30.000,596.239 30.000,599.000 C30.000,601.761 27.761,604.000 25.000,604.000 ZM25.000,584.000 C22.239,584.000 20.000,581.761 20.000,579.000 C20.000,576.238 22.239,574.000 25.000,574.000 C27.761,574.000 30.000,576.238 30.000,579.000 C30.000,581.761 27.761,584.000 25.000,584.000 ZM5.000,684.000 C2.239,684.000 0.000,681.761 0.000,679.000 C0.000,676.238 2.239,674.000 5.000,674.000 C7.762,674.000 10.000,676.238 10.000,679.000 C10.000,681.761 7.762,684.000 5.000,684.000 ZM5.000,664.000 C2.239,664.000 0.000,661.761 0.000,659.000 C0.000,656.238 2.239,654.000 5.000,654.000 C7.762,654.000 10.000,656.238 10.000,659.000 C10.000,661.761 7.762,664.000 5.000,664.000 ZM5.000,644.000 C2.239,644.000 0.000,641.761 0.000,639.000 C0.000,636.238 2.239,634.000 5.000,634.000 C7.762,634.000 10.000,636.238 10.000,639.000 C10.000,641.761 7.762,644.000 5.000,644.000 ZM5.000,624.000 C2.239,624.000 0.000,621.761 0.000,619.000 C0.000,616.238 2.239,614.000 5.000,614.000 C7.762,614.000 10.000,616.238 10.000,619.000 C10.000,621.761 7.762,624.000 5.000,624.000 ZM5.000,604.000 C2.239,604.000 0.000,601.761 0.000,599.000 C0.000,596.239 2.239,594.000 5.000,594.000 C7.762,594.000 10.000,596.239 10.000,599.000 C10.000,601.761 7.762,604.000 5.000,604.000 ZM5.000,584.000 C2.239,584.000 0.000,581.761 0.000,579.000 C0.000,576.238 2.239,574.000 5.000,574.000 C7.762,574.000 10.000,576.238 10.000,579.000 C10.000,581.761 7.762,584.000 5.000,584.000 ZM267.000,674.000 C269.761,674.000 272.000,676.238 272.000,679.000 C272.000,681.761 269.761,684.000 267.000,684.000 C264.238,684.000 262.000,681.761 262.000,679.000 C262.000,676.238 264.238,674.000 267.000,674.000 Z"/>
</svg>
