<?xml version="1.0" encoding="UTF-8" standalone="no"?>
<svg
   xmlns:bx="https://boxy-svg.com"
   xmlns:dc="http://purl.org/dc/elements/1.1/"
   xmlns:cc="http://creativecommons.org/ns#"
   xmlns:rdf="http://www.w3.org/1999/02/22-rdf-syntax-ns#"
   xmlns:svg="http://www.w3.org/2000/svg"
   xmlns="http://www.w3.org/2000/svg"
   xmlns:sodipodi="http://sodipodi.sourceforge.net/DTD/sodipodi-0.dtd"
   xmlns:inkscape="http://www.inkscape.org/namespaces/inkscape"
   inkscape:version="1.0rc1 (09960d6, 2020-04-09)"
   sodipodi:docname="dns.svg"
   id="svg839"
   version="1.1"
   viewBox="0 0 500 500">
  <metadata
     id="metadata845">
    <rdf:RDF>
      <cc:Work
         rdf:about="">
        <dc:format>image/svg+xml</dc:format>
        <dc:type
           rdf:resource="http://purl.org/dc/dcmitype/StillImage" />
      </cc:Work>
    </rdf:RDF>
  </metadata>
  <defs
     id="defs843" />
  <sodipodi:namedview
     inkscape:current-layer="svg839"
     inkscape:window-maximized="0"
     inkscape:window-y="23"
     inkscape:window-x="29"
     inkscape:cy="200.31056"
     inkscape:cx="175.46584"
     inkscape:zoom="0.966"
     showgrid="false"
     id="namedview841"
     inkscape:window-height="690"
     inkscape:window-width="1205"
     inkscape:pageshadow="2"
     inkscape:pageopacity="0"
     guidetolerance="10"
     gridtolerance="10"
     objecttolerance="10"
     borderopacity="1"
     bordercolor="#666666"
     pagecolor="#ffffff" />
  <ellipse
     id="ellipse833"
     bx:origin="0.5 0.5"
     style="fill: rgb(33, 43, 48);"
     ry="250"
     rx="250"
     cy="407.302"
     cx="492.686"
     transform="matrix(1, -0.000055, 0.000055, 1, -242.698988, -157.261157)" />
  <path
     id="path835"
     bx:origin="0.498 0.573"
     style="fill: rgb(10, 193, 143);"
     p-id="13099"
     d="M 145.159 373.496 C 93.841 373.496 52.262 332.401 52.262 281.681 C 52.262 235.868 86.229 197.895 130.632 191.012 C 137.663 131.049 189.221 84.502 251.759 84.502 L 254.023 84.529 C 315.552 85.634 365.95 131.771 372.907 191.006 C 417.309 197.902 451.262 235.868 451.262 281.688 C 451.262 332.395 409.684 373.502 358.386 373.502 Z M 251.759 114.837 L 249.631 114.864 C 200.216 115.983 160.499 155.938 160.499 205.06 C 160.499 213.438 153.628 220.228 145.152 220.228 C 110.797 220.228 82.948 247.739 82.948 281.688 C 82.948 315.641 110.798 343.167 145.152 343.167 L 358.386 343.167 C 392.727 343.167 420.569 315.643 420.569 281.688 C 420.577 247.741 392.732 220.221 358.386 220.228 C 349.91 220.228 343.039 213.438 343.039 205.06 L 343.012 202.958 C 341.886 154.104 301.461 114.844 251.752 114.844 Z" />
  <path
     inkscape:connector-curvature="0"
     id="path837"
     style="fill:#0ac18f"
     p-id="15176"
     d="m 285.05739,248.028 c 14.836,-14.458 8.882,-40.001 -10.717,-45.979 -2.425,-0.74 -4.94,-1.12 -7.47,-1.128 h -0.004 v -16.375 h -10.622 v 16.375 h -10.623 v -16.375 h -10.622 v 16.375 h -21.241 v 98.25 h 21.241 v 16.375 h 10.622 v -16.375 h 10.623 v 16.375 h 10.622 v -16.375 h 5.31 c 20.438,-0.006 33.206,-22.751 22.981,-40.94 -2.38,-4.236 -5.825,-7.736 -9.973,-10.133 l -0.131,-0.07 z m -60.673,-36.189 h 42.486 c 12.265,0 19.93,13.646 13.798,24.563 -2.846,5.066 -8.106,8.187 -13.798,8.187 h -42.486 z m 47.796,76.418 h -47.796 v -32.75 h 47.796 c 12.264,0 19.929,13.646 13.797,24.563 -2.846,5.066 -8.106,8.187 -13.797,8.187 z" />
</svg>
