<?xml version="1.0" encoding="UTF-8"?>
<svg width="1920px" height="500px" viewBox="0 0 1920 500" version="1.1" xmlns="http://www.w3.org/2000/svg" xmlns:xlink="http://www.w3.org/1999/xlink">
    <title>路径</title>
    <g id="页面-1" stroke="none" stroke-width="1" fill="none" fill-rule="evenodd">
        <g id="eco-bg">
            <polygon id="路径" fill="#185CEE" points="0 0 1920 0 1920 500 0 500"></polygon>
            <path d="M1580,0.5 C1580,111.233 1490.233,201 1379.5,201 C1268.767,201 1179,111.233 1179,0.5" id="路径" stroke="#3680FB" stroke-width="100"></path>
            <path d="M113,499.5 C113,388.767 202.767,299 313.5,299 C424.233,299 514,388.767 514,499.5" id="路径" stroke="#3680FB" stroke-width="100"></path>
            <path d="M1749,263 C1746.239,263 1744,260.761 1744,258 C1744,255.239 1746.239,253 1749,253 C1751.761,253 1754,255.239 1754,258 C1754,260.761 1751.761,263 1749,263 Z M1749,243 C1746.239,243 1744,240.761 1744,238 C1744,235.238 1746.239,233 1749,233 C1751.761,233 1754,235.238 1754,238 C1754,240.761 1751.761,243 1749,243 Z M1749,223 C1746.239,223 1744,220.761 1744,218 C1744,215.238 1746.239,213 1749,213 C1751.761,213 1754,215.238 1754,218 C1754,220.761 1751.761,223 1749,223 Z M1749,203 C1746.239,203 1744,200.761 1744,198 C1744,195.238 1746.239,193 1749,193 C1751.761,193 1754,195.238 1754,198 C1754,200.761 1751.761,203 1749,203 Z M1749,183 C1746.239,183 1744,180.761 1744,178 C1744,175.238 1746.239,173 1749,173 C1751.761,173 1754,175.238 1754,178 C1754,180.761 1751.761,183 1749,183 Z M1729,283 C1726.238,283 1724,280.761 1724,278 C1724,275.238 1726.238,273 1729,273 C1731.761,273 1734,275.238 1734,278 C1734,280.761 1731.761,283 1729,283 Z M1729,263 C1726.238,263 1724,260.761 1724,258 C1724,255.239 1726.238,253 1729,253 C1731.761,253 1734,255.239 1734,258 C1734,260.761 1731.761,263 1729,263 Z M1729,243 C1726.238,243 1724,240.761 1724,238 C1724,235.238 1726.238,233 1729,233 C1731.761,233 1734,235.238 1734,238 C1734,240.761 1731.761,243 1729,243 Z M1729,223 C1726.238,223 1724,220.761 1724,218 C1724,215.238 1726.238,213 1729,213 C1731.761,213 1734,215.238 1734,218 C1734,220.761 1731.761,223 1729,223 Z M1729,203 C1726.238,203 1724,200.761 1724,198 C1724,195.238 1726.238,193 1729,193 C1731.761,193 1734,195.238 1734,198 C1734,200.761 1731.761,203 1729,203 Z M1729,183 C1726.238,183 1724,180.761 1724,178 C1724,175.238 1726.238,173 1729,173 C1731.761,173 1734,175.238 1734,178 C1734,180.761 1731.761,183 1729,183 Z M1709,283 C1706.239,283 1704,280.761 1704,278 C1704,275.238 1706.239,273 1709,273 C1711.761,273 1714,275.238 1714,278 C1714,280.761 1711.761,283 1709,283 Z M1709,263 C1706.239,263 1704,260.761 1704,258 C1704,255.239 1706.239,253 1709,253 C1711.761,253 1714,255.239 1714,258 C1714,260.761 1711.761,263 1709,263 Z M1709,243 C1706.239,243 1704,240.761 1704,238 C1704,235.238 1706.239,233 1709,233 C1711.761,233 1714,235.238 1714,238 C1714,240.761 1711.761,243 1709,243 Z M1709,223 C1706.239,223 1704,220.761 1704,218 C1704,215.238 1706.239,213 1709,213 C1711.761,213 1714,215.238 1714,218 C1714,220.761 1711.761,223 1709,223 Z M1709,203 C1706.239,203 1704,200.761 1704,198 C1704,195.238 1706.239,193 1709,193 C1711.761,193 1714,195.238 1714,198 C1714,200.761 1711.761,203 1709,203 Z M1709,183 C1706.239,183 1704,180.761 1704,178 C1704,175.238 1706.239,173 1709,173 C1711.761,173 1714,175.238 1714,178 C1714,180.761 1711.761,183 1709,183 Z M1689,283 C1686.239,283 1684,280.761 1684,278 C1684,275.238 1686.239,273 1689,273 C1691.761,273 1694,275.238 1694,278 C1694,280.761 1691.761,283 1689,283 Z M1689,263 C1686.239,263 1684,260.761 1684,258 C1684,255.239 1686.239,253 1689,253 C1691.761,253 1694,255.239 1694,258 C1694,260.761 1691.761,263 1689,263 Z M1689,243 C1686.239,243 1684,240.761 1684,238 C1684,235.238 1686.239,233 1689,233 C1691.761,233 1694,235.238 1694,238 C1694,240.761 1691.761,243 1689,243 Z M1689,223 C1686.239,223 1684,220.761 1684,218 C1684,215.238 1686.239,213 1689,213 C1691.761,213 1694,215.238 1694,218 C1694,220.761 1691.761,223 1689,223 Z M1689,203 C1686.239,203 1684,200.761 1684,198 C1684,195.238 1686.239,193 1689,193 C1691.761,193 1694,195.238 1694,198 C1694,200.761 1691.761,203 1689,203 Z M1689,183 C1686.239,183 1684,180.761 1684,178 C1684,175.238 1686.239,173 1689,173 C1691.761,173 1694,175.238 1694,178 C1694,180.761 1691.761,183 1689,183 Z M1669,283 C1666.238,283 1664,280.761 1664,278 C1664,275.238 1666.238,273 1669,273 C1671.761,273 1674,275.238 1674,278 C1674,280.761 1671.761,283 1669,283 Z M1669,263 C1666.238,263 1664,260.761 1664,258 C1664,255.239 1666.238,253 1669,253 C1671.761,253 1674,255.239 1674,258 C1674,260.761 1671.761,263 1669,263 Z M1669,243 C1666.238,243 1664,240.761 1664,238 C1664,235.238 1666.238,233 1669,233 C1671.761,233 1674,235.238 1674,238 C1674,240.761 1671.761,243 1669,243 Z M1669,223 C1666.238,223 1664,220.761 1664,218 C1664,215.238 1666.238,213 1669,213 C1671.761,213 1674,215.238 1674,218 C1674,220.761 1671.761,223 1669,223 Z M1669,203 C1666.238,203 1664,200.761 1664,198 C1664,195.238 1666.238,193 1669,193 C1671.761,193 1674,195.238 1674,198 C1674,200.761 1671.761,203 1669,203 Z M1669,183 C1666.238,183 1664,180.761 1664,178 C1664,175.238 1666.238,173 1669,173 C1671.761,173 1674,175.238 1674,178 C1674,180.761 1671.761,183 1669,183 Z M1649,283 C1646.239,283 1644,280.761 1644,278 C1644,275.238 1646.239,273 1649,273 C1651.761,273 1654,275.238 1654,278 C1654,280.761 1651.761,283 1649,283 Z M1649,263 C1646.239,263 1644,260.761 1644,258 C1644,255.239 1646.239,253 1649,253 C1651.761,253 1654,255.239 1654,258 C1654,260.761 1651.761,263 1649,263 Z M1649,243 C1646.239,243 1644,240.761 1644,238 C1644,235.238 1646.239,233 1649,233 C1651.761,233 1654,235.238 1654,238 C1654,240.761 1651.761,243 1649,243 Z M1649,223 C1646.239,223 1644,220.761 1644,218 C1644,215.238 1646.239,213 1649,213 C1651.761,213 1654,215.238 1654,218 C1654,220.761 1651.761,223 1649,223 Z M1649,203 C1646.239,203 1644,200.761 1644,198 C1644,195.238 1646.239,193 1649,193 C1651.761,193 1654,195.238 1654,198 C1654,200.761 1651.761,203 1649,203 Z M1649,183 C1646.239,183 1644,180.761 1644,178 C1644,175.238 1646.239,173 1649,173 C1651.761,173 1654,175.238 1654,178 C1654,180.761 1651.761,183 1649,183 Z M1629,283 C1626.239,283 1624,280.761 1624,278 C1624,275.238 1626.239,273 1629,273 C1631.761,273 1634,275.238 1634,278 C1634,280.761 1631.761,283 1629,283 Z M1629,263 C1626.239,263 1624,260.761 1624,258 C1624,255.239 1626.239,253 1629,253 C1631.761,253 1634,255.239 1634,258 C1634,260.761 1631.761,263 1629,263 Z M1629,243 C1626.239,243 1624,240.761 1624,238 C1624,235.238 1626.239,233 1629,233 C1631.761,233 1634,235.238 1634,238 C1634,240.761 1631.761,243 1629,243 Z M1629,223 C1626.239,223 1624,220.761 1624,218 C1624,215.238 1626.239,213 1629,213 C1631.761,213 1634,215.238 1634,218 C1634,220.761 1631.761,223 1629,223 Z M1629,203 C1626.239,203 1624,200.761 1624,198 C1624,195.238 1626.239,193 1629,193 C1631.761,193 1634,195.238 1634,198 C1634,200.761 1631.761,203 1629,203 Z M1629,183 C1626.239,183 1624,180.761 1624,178 C1624,175.238 1626.239,173 1629,173 C1631.761,173 1634,175.238 1634,178 C1634,180.761 1631.761,183 1629,183 Z M1749,273 C1751.761,273 1754,275.238 1754,278 C1754,280.761 1751.761,283 1749,283 C1746.239,283 1744,280.761 1744,278 C1744,275.238 1746.239,273 1749,273 Z" id="形状" fill="#FFFFFF"></path>
            <path d="M60,123 C57.239,123 55,120.761 55,118 C55,115.238 57.239,113 60,113 C62.761,113 65,115.238 65,118 C65,120.761 62.761,123 60,123 Z M60,103 C57.239,103 55,100.761 55,98 C55,95.238 57.239,93 60,93 C62.761,93 65,95.238 65,98 C65,100.761 62.761,103 60,103 Z M60,83 C57.239,83 55,80.761 55,78 C55,75.239 57.239,73 60,73 C62.761,73 65,75.239 65,78 C65,80.761 62.761,83 60,83 Z M60,63 C57.239,63 55,60.761 55,58 C55,55.238 57.239,53 60,53 C62.761,53 65,55.238 65,58 C65,60.761 62.761,63 60,63 Z M60,43 C57.239,43 55,40.761 55,38 C55,35.238 57.239,33 60,33 C62.761,33 65,35.238 65,38 C65,40.761 62.761,43 60,43 Z M40,143 C37.239,143 35,140.761 35,138 C35,135.238 37.239,133 40,133 C42.761,133 45,135.238 45,138 C45,140.761 42.761,143 40,143 Z M40,123 C37.239,123 35,120.761 35,118 C35,115.238 37.239,113 40,113 C42.761,113 45,115.238 45,118 C45,120.761 42.761,123 40,123 Z M40,103 C37.239,103 35,100.761 35,98 C35,95.238 37.239,93 40,93 C42.761,93 45,95.238 45,98 C45,100.761 42.761,103 40,103 Z M40,83 C37.239,83 35,80.761 35,78 C35,75.239 37.239,73 40,73 C42.761,73 45,75.239 45,78 C45,80.761 42.761,83 40,83 Z M40,63 C37.239,63 35,60.761 35,58 C35,55.238 37.239,53 40,53 C42.761,53 45,55.238 45,58 C45,60.761 42.761,63 40,63 Z M40,43 C37.239,43 35,40.761 35,38 C35,35.238 37.239,33 40,33 C42.761,33 45,35.238 45,38 C45,40.761 42.761,43 40,43 Z M20,143 C17.238,143 15,140.761 15,138 C15,135.238 17.238,133 20,133 C22.761,133 25,135.238 25,138 C25,140.761 22.761,143 20,143 Z M20,123 C17.238,123 15,120.761 15,118 C15,115.238 17.238,113 20,113 C22.761,113 25,115.238 25,118 C25,120.761 22.761,123 20,123 Z M20,103 C17.238,103 15,100.761 15,98 C15,95.238 17.238,93 20,93 C22.761,93 25,95.238 25,98 C25,100.761 22.761,103 20,103 Z M20,83 C17.238,83 15,80.761 15,78 C15,75.239 17.238,73 20,73 C22.761,73 25,75.239 25,78 C25,80.761 22.761,83 20,83 Z M20,63 C17.238,63 15,60.761 15,58 C15,55.238 17.238,53 20,53 C22.761,53 25,55.238 25,58 C25,60.761 22.761,63 20,63 Z M20,43 C17.238,43 15,40.761 15,38 C15,35.238 17.238,33 20,33 C22.761,33 25,35.238 25,38 C25,40.761 22.761,43 20,43 Z M60,133 C62.761,133 65,135.238 65,138 C65,140.761 62.761,143 60,143 C57.239,143 55,140.761 55,138 C55,135.238 57.239,133 60,133 Z" id="形状" fill="#FFFFFF"></path>
        </g>
    </g>
</svg>