<svg width="32" height="32" viewBox="0 0 32 32" fill="none" xmlns="http://www.w3.org/2000/svg">
    <path d="M16 32C24.8365 32 32 24.8365 32 16C32 7.16341 24.8365 0 16 0C7.16341 0 0 7.16341 0 16C0 24.8365 7.16341 32 16 32Z" fill="#627EEA"/>
    <path d="M16.0332 4V12.87L23.5302 16.22L16.0332 4Z" fill="white" fill-opacity="0.602"/>
    <path d="M16.0332 4L8.53516 16.22L16.0332 12.87V4Z" fill="white"/>
    <path d="M16.0332 21.9682V27.9952L23.5352 17.6162L16.0332 21.9682Z" fill="white" fill-opacity="0.602"/>
    <path d="M16.0332 27.9952V21.9672L8.53516 17.6162L16.0332 27.9952Z" fill="white"/>
    <path d="M16.0332 20.5731L23.5302 16.2201L16.0332 12.8721V20.5731Z" fill="white" fill-opacity="0.2"/>
    <path d="M8.53516 16.2201L16.0332 20.5731V12.8721L8.53516 16.2201Z" fill="white" fill-opacity="0.602"/>
</svg>
