<svg 
 xmlns="http://www.w3.org/2000/svg"
 xmlns:xlink="http://www.w3.org/1999/xlink"
 width="2200px" height="701px">
<path fill-rule="evenodd"  fill="rgb(225, 237, 252)"
 d="M579.422,79.861 C569.096,79.861 563.932,83.476 563.932,90.446 C563.932,99.223 577.357,102.580 592.588,108.001 C610.918,114.971 631.312,125.556 631.312,152.147 C631.312,179.254 610.143,200.165 570.128,200.165 C551.024,200.165 528.306,191.903 513.591,179.512 L533.986,150.856 C547.410,161.182 559.544,166.346 571.161,166.346 C583.294,166.346 588.458,161.957 588.458,154.728 C588.458,145.951 574.259,141.820 559.285,135.882 C541.730,128.912 521.077,117.037 521.077,92.769 C521.077,64.888 543.796,46.042 577.873,46.042 C601.108,46.042 617.630,55.336 630.538,64.888 L609.885,92.253 C599.559,85.025 589.232,79.861 579.422,79.861 ZM470.194,250.764 C428.372,250.764 399.200,228.821 385.259,198.099 C344.469,189.064 318.137,153.696 318.137,99.482 C318.137,36.490 353.763,0.864 406.170,0.864 C458.577,0.864 494.203,36.748 494.203,99.482 C494.203,150.598 470.710,185.191 433.793,196.292 C442.571,209.458 459.868,214.364 475.357,214.364 C483.619,214.364 491.105,212.815 497.043,210.749 L505.046,244.310 C497.817,248.183 485.426,250.764 470.194,250.764 ZM447.218,99.482 C447.218,62.306 431.470,40.363 406.170,40.363 C380.870,40.363 365.381,62.306 365.381,99.482 C365.381,139.497 380.870,162.473 406.170,162.473 C431.470,162.473 447.218,139.497 447.218,99.482 ZM247.121,152.405 L190.326,152.405 L179.225,196.550 L132.239,196.550 L191.875,4.478 L247.121,4.478 L306.757,196.550 L258.222,196.550 L247.121,152.405 ZM234.213,100.514 C229.050,81.410 224.145,58.434 218.982,38.814 L217.949,38.814 C213.302,58.950 208.139,81.410 203.234,100.514 L199.103,116.778 L238.344,116.778 L234.213,100.514 ZM46.768,84.766 L112.341,84.766 L112.341,123.233 L46.768,123.233 L46.768,196.550 L0.557,196.550 L0.557,4.478 L123.184,4.478 L123.184,42.686 L46.768,42.686 L46.768,84.766 Z"/>
<path fill-rule="evenodd"  fill="rgb(217, 231, 249)"
 d="M1357.000,160.000 C1354.239,160.000 1352.000,157.761 1352.000,155.000 C1352.000,152.238 1354.239,150.000 1357.000,150.000 C1359.761,150.000 1362.000,152.238 1362.000,155.000 C1362.000,157.761 1359.761,160.000 1357.000,160.000 ZM1357.000,140.000 C1354.239,140.000 1352.000,137.761 1352.000,135.000 C1352.000,132.238 1354.239,130.000 1357.000,130.000 C1359.761,130.000 1362.000,132.238 1362.000,135.000 C1362.000,137.761 1359.761,140.000 1357.000,140.000 ZM1357.000,120.000 C1354.239,120.000 1352.000,117.761 1352.000,115.000 C1352.000,112.239 1354.239,110.000 1357.000,110.000 C1359.761,110.000 1362.000,112.239 1362.000,115.000 C1362.000,117.761 1359.761,120.000 1357.000,120.000 ZM1357.000,100.000 C1354.239,100.000 1352.000,97.761 1352.000,95.000 C1352.000,92.239 1354.239,90.000 1357.000,90.000 C1359.761,90.000 1362.000,92.239 1362.000,95.000 C1362.000,97.761 1359.761,100.000 1357.000,100.000 ZM1357.000,80.000 C1354.239,80.000 1352.000,77.761 1352.000,75.000 C1352.000,72.238 1354.239,70.000 1357.000,70.000 C1359.761,70.000 1362.000,72.238 1362.000,75.000 C1362.000,77.761 1359.761,80.000 1357.000,80.000 ZM1337.000,180.000 C1334.239,180.000 1332.000,177.761 1332.000,175.000 C1332.000,172.238 1334.239,170.000 1337.000,170.000 C1339.761,170.000 1342.000,172.238 1342.000,175.000 C1342.000,177.761 1339.761,180.000 1337.000,180.000 ZM1337.000,160.000 C1334.239,160.000 1332.000,157.761 1332.000,155.000 C1332.000,152.238 1334.239,150.000 1337.000,150.000 C1339.761,150.000 1342.000,152.238 1342.000,155.000 C1342.000,157.761 1339.761,160.000 1337.000,160.000 ZM1337.000,140.000 C1334.239,140.000 1332.000,137.761 1332.000,135.000 C1332.000,132.238 1334.239,130.000 1337.000,130.000 C1339.761,130.000 1342.000,132.238 1342.000,135.000 C1342.000,137.761 1339.761,140.000 1337.000,140.000 ZM1337.000,120.000 C1334.239,120.000 1332.000,117.761 1332.000,115.000 C1332.000,112.239 1334.239,110.000 1337.000,110.000 C1339.761,110.000 1342.000,112.239 1342.000,115.000 C1342.000,117.761 1339.761,120.000 1337.000,120.000 ZM1337.000,100.000 C1334.239,100.000 1332.000,97.761 1332.000,95.000 C1332.000,92.239 1334.239,90.000 1337.000,90.000 C1339.761,90.000 1342.000,92.239 1342.000,95.000 C1342.000,97.761 1339.761,100.000 1337.000,100.000 ZM1337.000,80.000 C1334.239,80.000 1332.000,77.761 1332.000,75.000 C1332.000,72.238 1334.239,70.000 1337.000,70.000 C1339.761,70.000 1342.000,72.238 1342.000,75.000 C1342.000,77.761 1339.761,80.000 1337.000,80.000 ZM1317.000,180.000 C1314.238,180.000 1312.000,177.761 1312.000,175.000 C1312.000,172.238 1314.238,170.000 1317.000,170.000 C1319.761,170.000 1322.000,172.238 1322.000,175.000 C1322.000,177.761 1319.761,180.000 1317.000,180.000 ZM1317.000,160.000 C1314.238,160.000 1312.000,157.761 1312.000,155.000 C1312.000,152.238 1314.238,150.000 1317.000,150.000 C1319.761,150.000 1322.000,152.238 1322.000,155.000 C1322.000,157.761 1319.761,160.000 1317.000,160.000 ZM1317.000,140.000 C1314.238,140.000 1312.000,137.761 1312.000,135.000 C1312.000,132.238 1314.238,130.000 1317.000,130.000 C1319.761,130.000 1322.000,132.238 1322.000,135.000 C1322.000,137.761 1319.761,140.000 1317.000,140.000 ZM1317.000,120.000 C1314.238,120.000 1312.000,117.761 1312.000,115.000 C1312.000,112.239 1314.238,110.000 1317.000,110.000 C1319.761,110.000 1322.000,112.239 1322.000,115.000 C1322.000,117.761 1319.761,120.000 1317.000,120.000 ZM1317.000,100.000 C1314.238,100.000 1312.000,97.761 1312.000,95.000 C1312.000,92.239 1314.238,90.000 1317.000,90.000 C1319.761,90.000 1322.000,92.239 1322.000,95.000 C1322.000,97.761 1319.761,100.000 1317.000,100.000 ZM1317.000,80.000 C1314.238,80.000 1312.000,77.761 1312.000,75.000 C1312.000,72.238 1314.238,70.000 1317.000,70.000 C1319.761,70.000 1322.000,72.238 1322.000,75.000 C1322.000,77.761 1319.761,80.000 1317.000,80.000 ZM1297.000,180.000 C1294.239,180.000 1292.000,177.761 1292.000,175.000 C1292.000,172.238 1294.239,170.000 1297.000,170.000 C1299.761,170.000 1302.000,172.238 1302.000,175.000 C1302.000,177.761 1299.761,180.000 1297.000,180.000 ZM1297.000,160.000 C1294.239,160.000 1292.000,157.761 1292.000,155.000 C1292.000,152.238 1294.239,150.000 1297.000,150.000 C1299.761,150.000 1302.000,152.238 1302.000,155.000 C1302.000,157.761 1299.761,160.000 1297.000,160.000 ZM1297.000,140.000 C1294.239,140.000 1292.000,137.761 1292.000,135.000 C1292.000,132.238 1294.239,130.000 1297.000,130.000 C1299.761,130.000 1302.000,132.238 1302.000,135.000 C1302.000,137.761 1299.761,140.000 1297.000,140.000 ZM1297.000,120.000 C1294.239,120.000 1292.000,117.761 1292.000,115.000 C1292.000,112.239 1294.239,110.000 1297.000,110.000 C1299.761,110.000 1302.000,112.239 1302.000,115.000 C1302.000,117.761 1299.761,120.000 1297.000,120.000 ZM1297.000,100.000 C1294.239,100.000 1292.000,97.761 1292.000,95.000 C1292.000,92.239 1294.239,90.000 1297.000,90.000 C1299.761,90.000 1302.000,92.239 1302.000,95.000 C1302.000,97.761 1299.761,100.000 1297.000,100.000 ZM1297.000,80.000 C1294.239,80.000 1292.000,77.761 1292.000,75.000 C1292.000,72.238 1294.239,70.000 1297.000,70.000 C1299.761,70.000 1302.000,72.238 1302.000,75.000 C1302.000,77.761 1299.761,80.000 1297.000,80.000 ZM1277.000,180.000 C1274.239,180.000 1272.000,177.761 1272.000,175.000 C1272.000,172.238 1274.239,170.000 1277.000,170.000 C1279.761,170.000 1282.000,172.238 1282.000,175.000 C1282.000,177.761 1279.761,180.000 1277.000,180.000 ZM1277.000,160.000 C1274.239,160.000 1272.000,157.761 1272.000,155.000 C1272.000,152.238 1274.239,150.000 1277.000,150.000 C1279.761,150.000 1282.000,152.238 1282.000,155.000 C1282.000,157.761 1279.761,160.000 1277.000,160.000 ZM1277.000,140.000 C1274.239,140.000 1272.000,137.761 1272.000,135.000 C1272.000,132.238 1274.239,130.000 1277.000,130.000 C1279.761,130.000 1282.000,132.238 1282.000,135.000 C1282.000,137.761 1279.761,140.000 1277.000,140.000 ZM1277.000,120.000 C1274.239,120.000 1272.000,117.761 1272.000,115.000 C1272.000,112.239 1274.239,110.000 1277.000,110.000 C1279.761,110.000 1282.000,112.239 1282.000,115.000 C1282.000,117.761 1279.761,120.000 1277.000,120.000 ZM1277.000,100.000 C1274.239,100.000 1272.000,97.761 1272.000,95.000 C1272.000,92.239 1274.239,90.000 1277.000,90.000 C1279.761,90.000 1282.000,92.239 1282.000,95.000 C1282.000,97.761 1279.761,100.000 1277.000,100.000 ZM1277.000,80.000 C1274.239,80.000 1272.000,77.761 1272.000,75.000 C1272.000,72.238 1274.239,70.000 1277.000,70.000 C1279.761,70.000 1282.000,72.238 1282.000,75.000 C1282.000,77.761 1279.761,80.000 1277.000,80.000 ZM1257.000,180.000 C1254.238,180.000 1252.000,177.761 1252.000,175.000 C1252.000,172.238 1254.238,170.000 1257.000,170.000 C1259.761,170.000 1262.000,172.238 1262.000,175.000 C1262.000,177.761 1259.761,180.000 1257.000,180.000 ZM1257.000,160.000 C1254.238,160.000 1252.000,157.761 1252.000,155.000 C1252.000,152.238 1254.238,150.000 1257.000,150.000 C1259.761,150.000 1262.000,152.238 1262.000,155.000 C1262.000,157.761 1259.761,160.000 1257.000,160.000 ZM1257.000,140.000 C1254.238,140.000 1252.000,137.761 1252.000,135.000 C1252.000,132.238 1254.238,130.000 1257.000,130.000 C1259.761,130.000 1262.000,132.238 1262.000,135.000 C1262.000,137.761 1259.761,140.000 1257.000,140.000 ZM1257.000,120.000 C1254.238,120.000 1252.000,117.761 1252.000,115.000 C1252.000,112.239 1254.238,110.000 1257.000,110.000 C1259.761,110.000 1262.000,112.239 1262.000,115.000 C1262.000,117.761 1259.761,120.000 1257.000,120.000 ZM1257.000,100.000 C1254.238,100.000 1252.000,97.761 1252.000,95.000 C1252.000,92.239 1254.238,90.000 1257.000,90.000 C1259.761,90.000 1262.000,92.239 1262.000,95.000 C1262.000,97.761 1259.761,100.000 1257.000,100.000 ZM1257.000,80.000 C1254.238,80.000 1252.000,77.761 1252.000,75.000 C1252.000,72.238 1254.238,70.000 1257.000,70.000 C1259.761,70.000 1262.000,72.238 1262.000,75.000 C1262.000,77.761 1259.761,80.000 1257.000,80.000 ZM1237.000,180.000 C1234.239,180.000 1232.000,177.761 1232.000,175.000 C1232.000,172.238 1234.239,170.000 1237.000,170.000 C1239.761,170.000 1242.000,172.238 1242.000,175.000 C1242.000,177.761 1239.761,180.000 1237.000,180.000 ZM1237.000,160.000 C1234.239,160.000 1232.000,157.761 1232.000,155.000 C1232.000,152.238 1234.239,150.000 1237.000,150.000 C1239.761,150.000 1242.000,152.238 1242.000,155.000 C1242.000,157.761 1239.761,160.000 1237.000,160.000 ZM1237.000,140.000 C1234.239,140.000 1232.000,137.761 1232.000,135.000 C1232.000,132.238 1234.239,130.000 1237.000,130.000 C1239.761,130.000 1242.000,132.238 1242.000,135.000 C1242.000,137.761 1239.761,140.000 1237.000,140.000 ZM1237.000,120.000 C1234.239,120.000 1232.000,117.761 1232.000,115.000 C1232.000,112.239 1234.239,110.000 1237.000,110.000 C1239.761,110.000 1242.000,112.239 1242.000,115.000 C1242.000,117.761 1239.761,120.000 1237.000,120.000 ZM1237.000,100.000 C1234.239,100.000 1232.000,97.761 1232.000,95.000 C1232.000,92.239 1234.239,90.000 1237.000,90.000 C1239.761,90.000 1242.000,92.239 1242.000,95.000 C1242.000,97.761 1239.761,100.000 1237.000,100.000 ZM1237.000,80.000 C1234.239,80.000 1232.000,77.761 1232.000,75.000 C1232.000,72.238 1234.239,70.000 1237.000,70.000 C1239.761,70.000 1242.000,72.238 1242.000,75.000 C1242.000,77.761 1239.761,80.000 1237.000,80.000 ZM1357.000,170.000 C1359.761,170.000 1362.000,172.238 1362.000,175.000 C1362.000,177.761 1359.761,180.000 1357.000,180.000 C1354.239,180.000 1352.000,177.761 1352.000,175.000 C1352.000,172.238 1354.239,170.000 1357.000,170.000 Z"/>
<path fill-rule="evenodd"  stroke="rgb(218, 232, 255)" stroke-width="70px" stroke-linecap="butt" stroke-linejoin="miter" fill="none"
 d="M1638.000,347.000 C1716.424,347.000 1780.000,410.575 1780.000,489.000 C1780.000,567.424 1716.424,631.000 1638.000,631.000 C1559.576,631.000 1496.000,567.424 1496.000,489.000 C1496.000,410.575 1559.576,347.000 1638.000,347.000 Z"/>
</svg>
