<svg 
 xmlns="http://www.w3.org/2000/svg"
 xmlns:xlink="http://www.w3.org/1999/xlink"
 width="1920px" height="646px">
<defs>
<linearGradient id="PSgrad_0" x1="85.717%" x2="0%" y1="51.504%" y2="0%">
  <stop offset="0%" stop-color="rgb(46,2,125)" stop-opacity="1" />
  <stop offset="100%" stop-color="rgb(29,108,239)" stop-opacity="1" />
</linearGradient>
<linearGradient id="PSgrad_1" x1="0%" x2="0%" y1="100%" y2="0%">
  <stop offset="0%" stop-color="rgb(38,52,179)" stop-opacity="1" />
  <stop offset="100%" stop-color="rgb(29,108,239)" stop-opacity="1" />
</linearGradient>

</defs>
<path fill-rule="evenodd"  fill="url(#PSgrad_0)"
 d="M0.000,646.000 L0.000,0.000 L1920.000,0.000 L1920.000,646.000 L0.000,646.000 Z"/>
<path fill-rule="evenodd"  opacity="0.502" fill="rgb(255, 255, 255)"
 d="M1775.000,179.000 C1771.134,179.000 1768.000,175.866 1768.000,172.000 C1768.000,168.134 1771.134,165.000 1775.000,165.000 C1778.866,165.000 1782.000,168.134 1782.000,172.000 C1782.000,175.866 1778.866,179.000 1775.000,179.000 ZM1764.500,227.000 C1762.567,227.000 1761.000,225.433 1761.000,223.500 C1761.000,221.567 1762.567,220.000 1764.500,220.000 C1766.433,220.000 1768.000,221.567 1768.000,223.500 C1768.000,225.433 1766.433,227.000 1764.500,227.000 ZM1566.000,325.000 C1562.134,325.000 1559.000,321.866 1559.000,318.000 C1559.000,314.134 1562.134,311.000 1566.000,311.000 C1569.866,311.000 1573.000,314.134 1573.000,318.000 C1573.000,321.866 1569.866,325.000 1566.000,325.000 ZM1488.500,264.000 C1486.567,264.000 1485.000,262.433 1485.000,260.500 C1485.000,258.567 1486.567,257.000 1488.500,257.000 C1490.433,257.000 1492.000,258.567 1492.000,260.500 C1492.000,262.433 1490.433,264.000 1488.500,264.000 ZM1403.000,165.000 C1399.134,165.000 1396.000,161.866 1396.000,158.000 C1396.000,154.134 1399.134,151.000 1403.000,151.000 C1406.866,151.000 1410.000,154.134 1410.000,158.000 C1410.000,161.866 1406.866,165.000 1403.000,165.000 ZM1280.000,462.000 C1276.134,462.000 1273.000,458.866 1273.000,455.000 C1273.000,451.134 1276.134,448.000 1280.000,448.000 C1283.866,448.000 1287.000,451.134 1287.000,455.000 C1287.000,458.866 1283.866,462.000 1280.000,462.000 ZM1174.500,46.000 C1172.567,46.000 1171.000,44.433 1171.000,42.500 C1171.000,40.567 1172.567,39.000 1174.500,39.000 C1176.433,39.000 1178.000,40.567 1178.000,42.500 C1178.000,44.433 1176.433,46.000 1174.500,46.000 ZM910.500,535.000 C908.567,535.000 907.000,533.433 907.000,531.500 C907.000,529.567 908.567,528.000 910.500,528.000 C912.433,528.000 914.000,529.567 914.000,531.500 C914.000,533.433 912.433,535.000 910.500,535.000 ZM838.000,179.000 C834.134,179.000 831.000,175.866 831.000,172.000 C831.000,168.134 834.134,165.000 838.000,165.000 C841.866,165.000 845.000,168.134 845.000,172.000 C845.000,175.866 841.866,179.000 838.000,179.000 ZM549.500,96.000 C547.567,96.000 546.000,94.433 546.000,92.500 C546.000,90.567 547.567,89.000 549.500,89.000 C551.433,89.000 553.000,90.567 553.000,92.500 C553.000,94.433 551.433,96.000 549.500,96.000 ZM446.500,510.000 C444.567,510.000 443.000,508.433 443.000,506.500 C443.000,504.567 444.567,503.000 446.500,503.000 C448.433,503.000 450.000,504.567 450.000,506.500 C450.000,508.433 448.433,510.000 446.500,510.000 ZM436.000,412.000 C432.134,412.000 429.000,408.866 429.000,405.000 C429.000,401.134 432.134,398.000 436.000,398.000 C439.866,398.000 443.000,401.134 443.000,405.000 C443.000,408.866 439.866,412.000 436.000,412.000 ZM177.000,237.000 C173.134,237.000 170.000,233.866 170.000,230.000 C170.000,226.134 173.134,223.000 177.000,223.000 C180.866,223.000 184.000,226.134 184.000,230.000 C184.000,233.866 180.866,237.000 177.000,237.000 ZM126.500,448.000 C124.567,448.000 123.000,446.433 123.000,444.500 C123.000,442.567 124.567,441.000 126.500,441.000 C128.433,441.000 130.000,442.567 130.000,444.500 C130.000,446.433 128.433,448.000 126.500,448.000 Z"/>
<path fill-rule="evenodd"  fill="url(#PSgrad_1)"
 d="M0.000,646.000 L0.000,534.305 C162.541,488.143 430.003,391.272 807.000,509.000 C1188.669,628.186 1362.408,537.905 1577.000,502.000 C1703.289,480.869 1826.408,498.924 1920.000,527.892 L1920.000,646.000 L0.000,646.000 Z"/>
<path fill-rule="evenodd"  fill="rgb(50, 81, 214)"
 d="M1745.500,632.000 C1740.253,632.000 1736.000,630.209 1736.000,628.000 C1736.000,625.791 1740.253,624.000 1745.500,624.000 C1750.747,624.000 1755.000,625.791 1755.000,628.000 C1755.000,630.209 1750.747,632.000 1745.500,632.000 ZM1726.500,539.000 C1721.253,539.000 1717.000,537.209 1717.000,535.000 C1717.000,532.791 1721.253,531.000 1726.500,531.000 C1731.747,531.000 1736.000,532.791 1736.000,535.000 C1736.000,537.209 1731.747,539.000 1726.500,539.000 ZM1685.500,577.000 C1680.253,577.000 1676.000,575.209 1676.000,573.000 C1676.000,570.791 1680.253,569.000 1685.500,569.000 C1690.747,569.000 1695.000,570.791 1695.000,573.000 C1695.000,575.209 1690.747,577.000 1685.500,577.000 ZM1580.500,610.000 C1575.253,610.000 1571.000,608.209 1571.000,606.000 C1571.000,603.791 1575.253,602.000 1580.500,602.000 C1585.747,602.000 1590.000,603.791 1590.000,606.000 C1590.000,608.209 1585.747,610.000 1580.500,610.000 ZM1580.500,565.000 C1575.253,565.000 1571.000,563.209 1571.000,561.000 C1571.000,558.791 1575.253,557.000 1580.500,557.000 C1585.747,557.000 1590.000,558.791 1590.000,561.000 C1590.000,563.209 1585.747,565.000 1580.500,565.000 ZM1470.500,543.000 C1465.253,543.000 1461.000,541.209 1461.000,539.000 C1461.000,536.791 1465.253,535.000 1470.500,535.000 C1475.747,535.000 1480.000,536.791 1480.000,539.000 C1480.000,541.209 1475.747,543.000 1470.500,543.000 ZM776.500,577.000 C771.253,577.000 767.000,575.209 767.000,573.000 C767.000,570.791 771.253,569.000 776.500,569.000 C781.747,569.000 786.000,570.791 786.000,573.000 C786.000,575.209 781.747,577.000 776.500,577.000 ZM617.500,535.000 C612.253,535.000 608.000,533.209 608.000,531.000 C608.000,528.791 612.253,527.000 617.500,527.000 C622.747,527.000 627.000,528.791 627.000,531.000 C627.000,533.209 622.747,535.000 617.500,535.000 ZM579.500,573.000 C574.253,573.000 570.000,571.209 570.000,569.000 C570.000,566.791 574.253,565.000 579.500,565.000 C584.747,565.000 589.000,566.791 589.000,569.000 C589.000,571.209 584.747,573.000 579.500,573.000 ZM533.500,505.000 C528.253,505.000 524.000,503.209 524.000,501.000 C524.000,498.791 528.253,497.000 533.500,497.000 C538.747,497.000 543.000,498.791 543.000,501.000 C543.000,503.209 538.747,505.000 533.500,505.000 ZM495.500,543.000 C490.253,543.000 486.000,541.209 486.000,539.000 C486.000,536.791 490.253,535.000 495.500,535.000 C500.747,535.000 505.000,536.791 505.000,539.000 C505.000,541.209 500.747,543.000 495.500,543.000 ZM414.500,535.000 C409.253,535.000 405.000,533.209 405.000,531.000 C405.000,528.791 409.253,527.000 414.500,527.000 C419.747,527.000 424.000,528.791 424.000,531.000 C424.000,533.209 419.747,535.000 414.500,535.000 ZM330.500,505.000 C325.253,505.000 321.000,503.209 321.000,501.000 C321.000,498.791 325.253,497.000 330.500,497.000 C335.747,497.000 340.000,498.791 340.000,501.000 C340.000,503.209 335.747,505.000 330.500,505.000 ZM240.500,539.000 C235.253,539.000 231.000,537.209 231.000,535.000 C231.000,532.791 235.253,531.000 240.500,531.000 C245.747,531.000 250.000,532.791 250.000,535.000 C250.000,537.209 245.747,539.000 240.500,539.000 ZM118.500,644.000 C113.253,644.000 109.000,642.209 109.000,640.000 C109.000,637.791 113.253,636.000 118.500,636.000 C123.747,636.000 128.000,637.791 128.000,640.000 C128.000,642.209 123.747,644.000 118.500,644.000 ZM118.500,581.000 C113.253,581.000 109.000,579.209 109.000,577.000 C109.000,574.791 113.253,573.000 118.500,573.000 C123.747,573.000 128.000,574.791 128.000,577.000 C128.000,579.209 123.747,581.000 118.500,581.000 ZM55.500,628.000 C50.253,628.000 46.000,626.209 46.000,624.000 C46.000,621.791 50.253,620.000 55.500,620.000 C60.747,620.000 65.000,621.791 65.000,624.000 C65.000,626.209 60.747,628.000 55.500,628.000 Z"/>
</svg>
