<?xml version="1.0" encoding="UTF-8"?>
<svg width="512px" height="512px" viewBox="0 0 512 512" version="1.1" xmlns="http://www.w3.org/2000/svg" xmlns:xlink="http://www.w3.org/1999/xlink">
    <title>trust</title>
    <defs>
        <linearGradient x1="50%" y1="0%" x2="50%" y2="100%" id="linearGradient-1">
            <stop stop-color="#668BDD" offset="0%"></stop>
            <stop stop-color="#003DC6" offset="100%"></stop>
        </linearGradient>
    </defs>
    <g id="页面-1" stroke="none" stroke-width="1" fill="none" fill-rule="evenodd">
        <g id="trust" fill-rule="nonzero">
            <rect id="Background" fill="url(#linearGradient-1)" x="0" y="0" width="512" height="512" rx="256"></rect>
            <g id="ht" transform="translate(157.000000, 104.000000)" fill="#FFFFFF">
                <path d="M131,93.8828213 C131,50.1434699 109.719513,12.4603364 93.4195648,0.123596283 C93.4195648,0.123596283 92.2876239,-0.549316815 92.2876239,1.24511811 C90.929295,85.8078641 47.6891556,108.911214 23.6920102,139.640912 C-31.3203137,210.9697 19.8434114,289.02762 71.9126892,303.383099 C101.116762,311.458056 65.1210442,289.02762 60.593281,241.923703 C55.159965,184.72609 131,141.211043 131,93.8828213" id="路径"></path>
                <path d="M158.905191,122.168693 C158.905191,122.168693 158.905191,122.168693 158.682553,122.393617 C157.792,132.965058 146.214815,155.907332 131.743335,176.825289 C82.5403003,247.901355 110.592709,282.089843 126.400019,300.533633 C135.528183,311.329997 126.400019,300.533633 149.33175,289.512344 C151.112855,288.612647 193.859383,265.670372 198.534784,213.712868 C203.210186,163.104909 171.372928,131.390588 160.018382,122.168693 C159.795743,121.943769 159.350467,121.943769 158.905191,122.168693 Z" id="路径"></path>
            </g>
        </g>
    </g>
</svg>