<?xml version="1.0" encoding="utf-8"?>
<svg id="_-s-background" data-name="-s-background" width="1920" height="854.906" viewBox="0 0 1920 854.906" xmlns="http://www.w3.org/2000/svg">
  <defs>
    <style>
      .cls-1, .cls-13, .cls-17, .cls-2, .cls-21, .cls-3, .cls-4, .cls-5, .cls-6, .cls-7, .cls-8, .cls-9 {
        fill-rule: evenodd;
      }

      .cls-1 {
        fill: url(#linear-gradient);
      }

      .cls-2 {
        fill: #fff;
        opacity: 0.5;
      }

      .cls-3 {
        fill: #224dce;
      }

      .cls-4 {
        fill: #2822a1;
      }

      .cls-5 {
        fill: url(#linear-gradient-2);
      }

      .cls-6 {
        fill: #3251d6;
      }

      .cls-7 {
        fill: #2e027d;
      }

      .cls-8, .cls-9 {
        fill: none;
        stroke: #6d45b5;
      }

      .cls-8 {
        stroke-width: 3px;
      }

      .cls-9 {
        stroke-linecap: round;
        stroke-width: 10px;
      }

      .cls-10 {
        fill: url(#radial-gradient);
      }

      .cls-11 {
        fill: url(#linear-gradient-3);
      }

      .cls-12 {
        fill: url(#linear-gradient-4);
      }

      .cls-13 {
        fill: #f8c9d1;
      }

      .cls-14 {
        fill: url(#radial-gradient-2);
      }

      .cls-15 {
        fill: url(#linear-gradient-5);
      }

      .cls-16 {
        fill: url(#linear-gradient-6);
      }

      .cls-17 {
        fill: #fff5d6;
      }

      .cls-18 {
        fill: url(#radial-gradient-3);
      }

      .cls-19 {
        fill: url(#linear-gradient-7);
      }

      .cls-20 {
        fill: url(#linear-gradient-8);
      }

      .cls-21 {
        fill: #d9e8ff;
      }
    </style>
    <linearGradient id="linear-gradient" x1="1670.881" y1="854.281" x2="249.119" gradientUnits="userSpaceOnUse">
      <stop offset="0" stop-color="#2e027d"/>
      <stop offset="1" stop-color="#1d6cef"/>
    </linearGradient>
    <linearGradient id="linear-gradient-2" x1="960" y1="854.406" x2="960" y2="507.906" gradientUnits="userSpaceOnUse">
      <stop offset="0" stop-color="#2634b3"/>
      <stop offset="1" stop-color="#1d6cef"/>
    </linearGradient>
  </defs>
  <path id="ellipse_1" data-name="ellipse 1" class="cls-1" d="M1920,0V854.275S1309.41,853,960,853,0,854.275,0,854.275V0H1920Z"/>
  <path id="ellipse_4_copy_13" data-name="ellipse 4 copy 13" class="cls-2" d="M177,208a7,7,0,1,1-7,7A7,7,0,0,1,177,208ZM436,383a7,7,0,1,1-7,7A7,7,0,0,1,436,383ZM838,150a7,7,0,1,1-7,7A7,7,0,0,1,838,150Zm442,283a7,7,0,1,1-7,7A7,7,0,0,1,1280,433Zm123-297a7,7,0,1,1-7,7A7,7,0,0,1,1403,136Zm163,160a7,7,0,1,1-7,7A7,7,0,0,1,1566,296Zm209-146a7,7,0,1,1-7,7A7,7,0,0,1,1775,150Zm-10.5,55a3.5,3.5,0,1,1-3.5,3.5A3.5,3.5,0,0,1,1764.5,205Zm-276,37a3.5,3.5,0,1,1-3.5,3.5A3.5,3.5,0,0,1,1488.5,242Zm-314-218a3.5,3.5,0,1,1-3.5,3.5A3.5,3.5,0,0,1,1174.5,24Zm-625,50a3.5,3.5,0,1,1-3.5,3.5A3.5,3.5,0,0,1,549.5,74Zm-103,414a3.5,3.5,0,1,1-3.5,3.5A3.5,3.5,0,0,1,446.5,488Zm464,25a3.5,3.5,0,1,1-3.5,3.5A3.5,3.5,0,0,1,910.5,513Zm-784-87a3.5,3.5,0,1,1-3.5,3.5A3.5,3.5,0,0,1,126.5,426Z"/>
  <path id="rectangle_6" data-name="rectangle 6" class="cls-3" d="M463,592V324h84V592H463ZM365,378h9V352h49v26h10V604H365V378Zm-75,45h52V601H290V423Zm-94-79h1V315h32v29h46V631H196V344ZM94,351h77V624H94V351Z"/>
  <path id="rectangle_6_copy" data-name="rectangle 6 copy" class="cls-4" d="M1751,592V324h84V592h-84Zm-98-214h9V352h49v26h10V604h-68V378Zm-75,45h52V601h-52V423Zm-94-79h1V315h32v29h46V631h-79V344Zm-102,7h77V624h-77V351Z"/>
  <path id="shape_6_copy_2" data-name="shape 6 copy 2" class="cls-5" d="M0,751.506V589.3C162.541,543.143,430,446.272,807,564c381.67,119.186,555.41,28.9,770-7,126.29-21.131,249.41-3.076,343,25.892V751.506s-479.2,102.9-958.8,102.9C480.8,854.406,0,751.506,0,751.506Z"/>
  <path id="ellipse_4_copy_4" data-name="ellipse 4 copy 4" class="cls-6" d="M330.5,539c5.247,0,9.5,1.791,9.5,4s-4.253,4-9.5,4-9.5-1.791-9.5-4S325.253,539,330.5,539Zm-212,76c5.247,0,9.5,1.791,9.5,4s-4.253,4-9.5,4-9.5-1.791-9.5-4S113.253,615,118.5,615Zm122-42c5.247,0,9.5,1.791,9.5,4s-4.253,4-9.5,4-9.5-1.791-9.5-4S235.253,573,240.5,573Zm-185,89c5.247,0,9.5,1.791,9.5,4s-4.253,4-9.5,4-9.5-1.791-9.5-4S50.253,662,55.5,662Zm721-51c5.247,0,9.5,1.791,9.5,4s-4.253,4-9.5,4-9.5-1.791-9.5-4S771.253,611,776.5,611Zm694-34c5.25,0,9.5,1.791,9.5,4s-4.25,4-9.5,4-9.5-1.791-9.5-4S1465.25,577,1470.5,577Zm110,22c5.25,0,9.5,1.791,9.5,4s-4.25,4-9.5,4-9.5-1.791-9.5-4S1575.25,599,1580.5,599Zm0,45c5.25,0,9.5,1.791,9.5,4s-4.25,4-9.5,4-9.5-1.791-9.5-4S1575.25,644,1580.5,644Zm105-33c5.25,0,9.5,1.791,9.5,4s-4.25,4-9.5,4-9.5-1.791-9.5-4S1680.25,611,1685.5,611Zm41-38c5.25,0,9.5,1.791,9.5,4s-4.25,4-9.5,4-9.5-1.791-9.5-4S1721.25,573,1726.5,573Zm19,93c5.25,0,9.5,1.791,9.5,4s-4.25,4-9.5,4-9.5-1.791-9.5-4S1740.25,666,1745.5,666Zm-1331-97c5.247,0,9.5,1.791,9.5,4s-4.253,4-9.5,4-9.5-1.791-9.5-4S409.253,569,414.5,569Zm81,8c5.247,0,9.5,1.791,9.5,4s-4.253,4-9.5,4-9.5-1.791-9.5-4S490.253,577,495.5,577Zm84,30c5.247,0,9.5,1.791,9.5,4s-4.253,4-9.5,4-9.5-1.791-9.5-4S574.253,607,579.5,607Zm-46-68c5.247,0,9.5,1.791,9.5,4s-4.253,4-9.5,4-9.5-1.791-9.5-4S528.253,539,533.5,539Zm84,30c5.247,0,9.5,1.791,9.5,4s-4.253,4-9.5,4-9.5-1.791-9.5-4S612.253,569,617.5,569Zm-499,109c5.247,0,9.5,1.791,9.5,4s-4.253,4-9.5,4-9.5-1.791-9.5-4S113.253,678,118.5,678Zm84,30c5.247,0,9.5,1.791,9.5,4s-4.253,4-9.5,4-9.5-1.791-9.5-4S197.253,708,202.5,708Z"/>
  <path id="shape_7" data-name="shape 7" class="cls-7" d="M910,854c101.11-54.489,215.54-164.411,301.01-175.273C1211.26,694.3,1219.5,712,1219.5,712s11.5-15.26,11.5-31c0-1.006-.01-1.989-0.02-2.949A76.077,76.077,0,0,1,1266,689c114.46,70.029,267.5,138.04,307-4,13.57-48.8,30.02-71.092,48.02-77.616,0.47,15.407,8.48,32.616,8.48,32.616s11.5-15.26,11.5-31q0-1.554-.03-3.034c29.41,5.319,61.41,39.324,91.06,61.96,55.65,42.468,66.64-244.73,166.94-135.939A304.318,304.318,0,0,1,1920,557.352V854H960C943.078,854,926.555,854.162,910,854ZM0,854V473.687c3.256-3.061,12.177,3.709,53.659,31.112C140.37,562.082,67.189,763.226,210,612a181.155,181.155,0,0,1,20.312-18.763A113.347,113.347,0,0,0,236.5,611s10.42-13.838,11.416-28.75C315.021,551.524,331.856,682.939,365,756c37.715,83.136,90.582-48.658,157.957-57.567C522.964,700.7,523,703.212,523,706c0,15.74,8.5,34,8.5,34s7.831-10.4,10.566-22.885C546.947,745.654,550.455,811.439,644,853,240.555,853,0,854,0,854Z"/>
  <g id="组_15" data-name="组 15">
    <path id="shape_8" data-name="shape 8" class="cls-8" d="M33,850c15.584-68.263,5.4-304.573-34-370"/>
    <path id="shape_8_copy" data-name="shape 8 copy" class="cls-8" d="M144,851c56.428-41.454,137.493-180.517,150.466-255.783"/>
    <path id="shape_8_copy_2" data-name="shape 8 copy 2" class="cls-8" d="M118,846c36.743-59.6,88.171-163.5,79-222"/>
    <path id="shape_8_copy_3" data-name="shape 8 copy 3" class="cls-8" d="M447,848c5.955-33.765,12.326-92.495,80-147"/>
    <path id="shape_8_copy_6" data-name="shape 8 copy 6" class="cls-8" d="M1170,853c-1.41-50.269-9.59-86.569-37-141"/>
    <path id="shape_8_copy_5" data-name="shape 8 copy 5" class="cls-8" d="M1229,850c34.44-41.455,50.03-69.734,63-145"/>
    <path id="shape_8_copy_4" data-name="shape 8 copy 4" class="cls-8" d="M1197,851c19.75-48.608,22.17-112.5,13-171"/>
    <path id="shape_8_copy_7" data-name="shape 8 copy 7" class="cls-8" d="M1593,851c2.59-21.281,24.4-100.573-15-166"/>
    <path id="shape_8_copy_7-2" data-name="shape 8 copy 7" class="cls-8" d="M1640,843c14.45-25.462,59.03-100.735,72-176"/>
    <path id="shape_8_copy_7-3" data-name="shape 8 copy 7" class="cls-8" d="M1615,848c25-47.609,68.17-161.5,59-220"/>
    <path id="shape_8_copy_8" data-name="shape 8 copy 8" class="cls-8" d="M1791,849c4.59-57.267,39.4-181.573,0-247"/>
    <path id="shape_8_copy_8-2" data-name="shape 8 copy 8" class="cls-8" d="M1848,839c20.45-35.457,57.03-137.722,69-182"/>
    <path id="shape_8_copy_8-3" data-name="shape 8 copy 8" class="cls-8" d="M1813,846c27.87-59.6,50.17-267.5,41-326"/>
    <path id="shape_8_copy_9" data-name="shape 8 copy 9" class="cls-9" d="M102,760c5.939-22.937,13.709-56.908-6-67"/>
    <path id="shape_8_copy_10" data-name="shape 8 copy 10" class="cls-9" d="M1749,772c16.84-16.663,24.71-22.909,5-33"/>
    <path id="shape_8_copy_11" data-name="shape 8 copy 11" class="cls-9" d="M1895,622c-1.32-18.315-2.89-35.115-16-32"/>
  </g>
</svg>