<?xml version="1.0" encoding="UTF-8" standalone="no"?>
<svg
   xmlns:dc="http://purl.org/dc/elements/1.1/"
   xmlns:cc="http://creativecommons.org/ns#"
   xmlns:rdf="http://www.w3.org/1999/02/22-rdf-syntax-ns#"
   xmlns:svg="http://www.w3.org/2000/svg"
   xmlns="http://www.w3.org/2000/svg"
   xmlns:sodipodi="http://sodipodi.sourceforge.net/DTD/sodipodi-0.dtd"
   xmlns:inkscape="http://www.inkscape.org/namespaces/inkscape"
   inkscape:version="1.0rc1 (09960d6, 2020-04-09)"
   sodipodi:docname="trash.svg"
   id="svg839"
   version="1.1"
   viewBox="0 0 512 512"
   height="512"
   width="512">
  <metadata
     id="metadata845">
    <rdf:RDF>
      <cc:Work
         rdf:about="">
        <dc:format>image/svg+xml</dc:format>
        <dc:type
           rdf:resource="http://purl.org/dc/dcmitype/StillImage" />
      </cc:Work>
    </rdf:RDF>
  </metadata>
  <defs
     id="defs843" />
  <sodipodi:namedview
     inkscape:current-layer="svg839"
     inkscape:window-maximized="0"
     inkscape:window-y="29"
     inkscape:window-x="247"
     inkscape:cy="256"
     inkscape:cx="256"
     inkscape:zoom="0.9140625"
     showgrid="false"
     id="namedview841"
     inkscape:window-height="480"
     inkscape:window-width="776"
     inkscape:pageshadow="2"
     inkscape:pageopacity="0"
     guidetolerance="10"
     gridtolerance="10"
     objecttolerance="10"
     borderopacity="1"
     bordercolor="#666666"
     pagecolor="#ffffff" />
  <title
     id="title833">ionicons-v5-e</title>
  <path
     id="path835"
     style="fill:none"
     d="M296,64H216a7.91,7.91,0,0,0-8,8V96h96V72A7.91,7.91,0,0,0,296,64Z" />
  <path
     style="fill:#f22223;fill-opacity:1"
     id="path837"
     d="M432,96H336V72a40,40,0,0,0-40-40H216a40,40,0,0,0-40,40V96H80a16,16,0,0,0,0,32H97L116,432.92c1.42,26.85,22,47.08,48,47.08H348c26.13,0,46.3-19.78,48-47L415,128h17a16,16,0,0,0,0-32ZM192.57,416H192a16,16,0,0,1-16-15.43l-8-224a16,16,0,1,1,32-1.14l8,224A16,16,0,0,1,192.57,416ZM272,400a16,16,0,0,1-32,0V176a16,16,0,0,1,32,0ZM304,96H208V72a7.91,7.91,0,0,1,8-8h80a7.91,7.91,0,0,1,8,8Zm32,304.57A16,16,0,0,1,320,416h-.58A16,16,0,0,1,304,399.43l8-224a16,16,0,1,1,32,1.14Z" />
</svg>
