<?xml version="1.0" encoding="UTF-8"?>
<svg width="247px" height="201px" viewBox="0 0 247 201" version="1.1" xmlns="http://www.w3.org/2000/svg" xmlns:xlink="http://www.w3.org/1999/xlink">
    <title>web-name</title>
    <defs>
        <linearGradient x1="0.00142045455%" y1="49.9987724%" x2="99.9951705%" y2="49.9987724%" id="linearGradient-1">
            <stop stop-color="#B0D8FF" offset="0%"></stop>
            <stop stop-color="#B3D9FF" offset="1.54%"></stop>
            <stop stop-color="#C4E1FF" offset="14.5%"></stop>
            <stop stop-color="#D1E7FF" offset="30.14%"></stop>
            <stop stop-color="#D8EAFF" offset="51.17%"></stop>
            <stop stop-color="#DAEBFF" offset="100%"></stop>
        </linearGradient>
        <linearGradient x1="0%" y1="50%" x2="100%" y2="50%" id="linearGradient-2">
            <stop stop-color="#B0D8FF" offset="0%"></stop>
            <stop stop-color="#B3D9FF" offset="1.54%"></stop>
            <stop stop-color="#C4E1FF" offset="14.5%"></stop>
            <stop stop-color="#D1E7FF" offset="30.14%"></stop>
            <stop stop-color="#D8EAFF" offset="51.17%"></stop>
            <stop stop-color="#DAEBFF" offset="100%"></stop>
        </linearGradient>
        <linearGradient x1="56.0058115%" y1="70.524424%" x2="40.097966%" y2="33.6274514%" id="linearGradient-3">
            <stop stop-color="#80CCDE" offset="0%"></stop>
            <stop stop-color="#7FCBFF" offset="16.49%"></stop>
            <stop stop-color="#FFFFFF" offset="98.07%"></stop>
        </linearGradient>
        <linearGradient x1="56.032691%" y1="70.5675291%" x2="40.1173434%" y2="33.6419547%" id="linearGradient-4">
            <stop stop-color="#80CCDE" offset="0%"></stop>
            <stop stop-color="#7FCBFF" offset="16.49%"></stop>
            <stop stop-color="#FFFFFF" offset="98.07%"></stop>
        </linearGradient>
        <linearGradient x1="56.0247763%" y1="70.5589558%" x2="40.1094288%" y2="33.6335957%" id="linearGradient-5">
            <stop stop-color="#80CCDE" offset="0%"></stop>
            <stop stop-color="#7FCBFF" offset="16.49%"></stop>
            <stop stop-color="#FFFFFF" offset="98.07%"></stop>
        </linearGradient>
        <linearGradient x1="50%" y1="0%" x2="50%" y2="100%" id="linearGradient-6">
            <stop stop-color="#5581E4" offset="0%"></stop>
            <stop stop-color="#003DC6" offset="100%"></stop>
        </linearGradient>
    </defs>
    <g id="页面-1" stroke="none" stroke-width="1" fill="none" fill-rule="evenodd">
        <g id="web-name">
            <g id="编组" opacity="0.45" transform="translate(174.000000, 34.000000)" fill-rule="nonzero">
                <g>
                    <path d="M0.66,21.36 L0.66,98.66 C0.66,100.96 1.6,102.82 2.77,102.82 L68.95,102.82 C70.11,102.82 71.06,100.96 71.06,98.66 L71.06,21.36 L0.66,21.36 Z" id="路径" fill="url(#linearGradient-1)"></path>
                    <path d="M71.06,4.89 C71.06,2.59 70.12,0.73 68.95,0.73 L2.77,0.73 C1.61,0.73 0.66,2.59 0.66,4.89 L0.66,10.89 L71.06,10.89 L71.06,4.89 L71.06,4.89 Z" id="路径" fill="#1D6CEF"></path>
                    <rect id="矩形" fill="#B0D8FF" x="0.66" y="10.89" width="70.4" height="10.47"></rect>
                </g>
                <g id="路径" transform="translate(6.000000, 25.000000)">
                    <g id="编组" transform="translate(1.000000, 35.000000)" fill="#D5E1F7">
                        <path d="M57.69,34.48 L1.5,34.48 C0.73,34.48 0.12,33.86 0.12,33.1 L0.12,16.9 C0.12,16.13 0.74,15.52 1.5,15.52 L57.69,15.52 C58.46,15.52 59.0709059,16.14 59.0709059,16.9 L59.0709059,33.1 C59.09,33.87 58.46,34.48 57.69,34.48 Z" id="路径"></path>
                        <g id="路径">
                            <path d="M9.24,10.26 L0.65,10.26 C0.44,10.26 0.26,10.09 0.26,9.87 L0.26,1.28 C0.26,1.07 0.43,0.89 0.65,0.89 L9.24,0.89 C9.45,0.89 9.63,1.06 9.63,1.28 L9.63,9.87 C9.63,10.09 9.46,10.26 9.24,10.26 Z"></path>
                            <path d="M21.47,10.26 L12.88,10.26 C12.67,10.26 12.49,10.09 12.49,9.87 L12.49,1.28 C12.49,1.07 12.66,0.89 12.88,0.89 L21.47,0.89 C21.68,0.89 21.86,1.06 21.86,1.28 L21.86,9.87 C21.86,10.09 21.68,10.26 21.47,10.26 Z"></path>
                            <path d="M33.69,10.26 L25.1,10.26 C24.89,10.26 24.71,10.09 24.71,9.87 L24.71,1.28 C24.71,1.07 24.88,0.89 25.1,0.89 L33.69,0.89 C33.9,0.89 34.08,1.06 34.08,1.28 L34.08,9.87 C34.07,10.09 33.9,10.26 33.69,10.26 Z"></path>
                            <path d="M45.91,10.26 L37.32,10.26 C37.11,10.26 36.93,10.09 36.93,9.87 L36.93,1.28 C36.93,1.07 37.1,0.89 37.32,0.89 L45.91,0.89 C46.12,0.89 46.3,1.06 46.3,1.28 L46.3,9.87 C46.3,10.09 46.13,10.26 45.91,10.26 Z"></path>
                            <path d="M58.13,10.26 L49.54,10.26 C49.33,10.26 49.15,10.09 49.15,9.87 L49.15,1.28 C49.15,1.07 49.32,0.89 49.54,0.89 L58.13,0.89 C58.34,0.89 58.52,1.06 58.52,1.28 L58.52,9.87 C58.52,10.09 58.34,10.26 58.13,10.26 Z"></path>
                        </g>
                    </g>
                    <path d="M58.49,29.94 L2.3,29.94 C1.53,29.94 0.92,29.32 0.92,28.56 L0.92,12.36 C0.92,11.59 1.54,10.98 2.3,10.98 L58.49,10.98 C59.26,10.98 59.87,11.6 59.87,12.36 L59.87,28.56 C59.87,29.32 59.26,29.94 58.49,29.94 Z" fill="#D5E1F7"></path>
                    <g id="编组" transform="translate(0.000000, 21.000000)">
                        <path d="M58.13,19.31 L1.94,19.31 C1.17,19.31 0.56,18.69 0.56,17.93 L0.56,1.73 C0.56,0.96 1.18,0.35 1.94,0.35 L58.13,0.35 C58.9,0.35 59.5102395,0.97 59.5102395,1.73 L59.5102395,17.93 C59.52,18.69 58.91,19.31 58.13,19.31 Z" id="路径" fill="#FFFFFF"></path>
                        <g transform="translate(2.000000, 2.000000)" id="路径">
                            <path d="M17.61,2.86 L1.31,2.86 C0.76,2.86 0.32,2.41 0.32,1.87 L0.32,1.87 C0.32,1.32 0.77,0.88 1.31,0.88 L17.61,0.88 C18.16,0.88 18.6,1.33 18.6,1.87 L18.6,1.87 C18.6,2.41 18.15,2.86 17.61,2.86 Z" fill="#8ABAFF"></path>
                            <path d="M54.13,7.55 L1.31,7.55 C0.76,7.55 0.32,7.1 0.32,6.56 L0.32,6.56 C0.32,6.01 0.77,5.57 1.31,5.57 L54.13,5.57 C54.68,5.57 55.1203218,6.02 55.1203218,6.56 L55.1203218,6.56 C55.13,7.11 54.68,7.55 54.13,7.55 Z" fill="#D5E1F7"></path>
                            <path d="M54.13,11.22 L1.31,11.22 C0.76,11.22 0.32,10.77 0.32,10.23 L0.32,10.23 C0.32,9.68 0.77,9.24 1.31,9.24 L54.13,9.24 C54.68,9.24 55.1203218,9.69 55.1203218,10.23 L55.1203218,10.23 C55.13,10.77 54.68,11.22 54.13,11.22 Z" fill="#EBF5FF"></path>
                            <path d="M54.13,14.79 L1.31,14.79 C0.76,14.79 0.32,14.34 0.32,13.8 L0.32,13.8 C0.32,13.25 0.77,12.81 1.31,12.81 L54.13,12.81 C54.68,12.81 55.1203218,13.26 55.1203218,13.8 L55.1203218,13.8 C55.13,14.34 54.68,14.79 54.13,14.79 Z" fill="#EBF5FF"></path>
                        </g>
                    </g>
                    <g id="编组" transform="translate(0.000000, 43.000000)">
                        <path d="M58.13,30.83 L1.94,30.83 C1.17,30.83 0.56,30.21 0.56,29.45 L0.56,13.25 C0.56,12.48 1.18,11.87 1.94,11.87 L58.13,11.87 C58.9,11.87 59.5102395,12.49 59.5102395,13.25 L59.5102395,29.45 C59.52,30.21 58.91,30.83 58.13,30.83 Z" id="路径" fill="#FFFFFF"></path>
                        <g fill="#EBF5FF" id="路径">
                            <path d="M9.88,9.48 L1.28,9.48 C1.07,9.48 0.89,9.31 0.89,9.09 L0.89,0.5 C0.89,0.29 1.06,0.11 1.28,0.11 L9.87,0.11 C10.08,0.11 10.26,0.28 10.26,0.5 L10.26,9.09 C10.26,9.3 10.09,9.48 9.88,9.48 Z"></path>
                            <path d="M22.1,9.48 L13.51,9.48 C13.3,9.48 13.12,9.31 13.12,9.09 L13.12,0.5 C13.12,0.29 13.29,0.11 13.51,0.11 L22.1,0.11 C22.31,0.11 22.49,0.28 22.49,0.5 L22.49,9.09 C22.49,9.3 22.32,9.48 22.1,9.48 Z"></path>
                            <path d="M34.32,9.48 L25.73,9.48 C25.52,9.48 25.34,9.31 25.34,9.09 L25.34,0.5 C25.34,0.29 25.51,0.11 25.73,0.11 L34.32,0.11 C34.53,0.11 34.71,0.28 34.71,0.5 L34.71,9.09 C34.71,9.3 34.54,9.48 34.32,9.48 Z"></path>
                            <path d="M46.55,9.48 L37.96,9.48 C37.75,9.48 37.57,9.31 37.57,9.09 L37.57,0.5 C37.57,0.29 37.74,0.11 37.96,0.11 L46.55,0.11 C46.76,0.11 46.94,0.28 46.94,0.5 L46.94,9.09 C46.94,9.3 46.76,9.48 46.55,9.48 Z"></path>
                            <path d="M58.78,9.48 L50.19,9.48 C49.98,9.48 49.8,9.31 49.8,9.09 L49.8,0.5 C49.8,0.29 49.97,0.11 50.19,0.11 L58.78,0.11 C58.99,0.11 59.17,0.28 59.17,0.5 L59.17,9.09 C59.16,9.3 58.99,9.48 58.78,9.48 Z"></path>
                        </g>
                        <g transform="translate(2.000000, 14.000000)" id="路径">
                            <path d="M17.61,2.01 L1.31,2.01 C0.76,2.01 0.32,1.56 0.32,1.02 L0.32,1.02 C0.32,0.47 0.77,0.03 1.31,0.03 L17.61,0.03 C18.16,0.03 18.6,0.48 18.6,1.02 L18.6,1.02 C18.6,1.56 18.15,2.01 17.61,2.01 Z" fill="#D5E1F7"></path>
                            <path d="M54.13,6.71 L1.31,6.71 C0.76,6.71 0.32,6.26 0.32,5.72 L0.32,5.72 C0.32,5.17 0.77,4.73 1.31,4.73 L54.13,4.73 C54.68,4.73 55.1203218,5.18 55.1203218,5.72 L55.1203218,5.72 C55.13,6.26 54.68,6.71 54.13,6.71 Z" fill="#8ABAFF"></path>
                            <path d="M54.13,10.37 L1.31,10.37 C0.76,10.37 0.32,9.92 0.32,9.38 L0.32,9.38 C0.32,8.83 0.77,8.39 1.31,8.39 L54.13,8.39 C54.68,8.39 55.1203218,8.84 55.1203218,9.38 L55.1203218,9.38 C55.13,9.92 54.68,10.37 54.13,10.37 Z" fill="#D5E1F7"></path>
                            <path d="M54.13,13.94 L1.31,13.94 C0.76,13.94 0.32,13.49 0.32,12.95 L0.32,12.95 C0.32,12.4 0.77,11.96 1.31,11.96 L54.13,11.96 C54.68,11.96 55.1203218,12.41 55.1203218,12.95 L55.1203218,12.95 C55.13,13.49 54.68,13.94 54.13,13.94 Z" fill="#EBF5FF"></path>
                        </g>
                    </g>
                    <path d="M58.13,19.24 L1.94,19.24 C1.17,19.24 0.56,18.62 0.56,17.86 L0.56,1.66 C0.56,0.89 1.18,0.28 1.94,0.28 L58.13,0.28 C58.9,0.28 59.5102395,0.9 59.5102395,1.66 L59.5102395,17.86 C59.52,18.63 58.91,19.24 58.13,19.24 Z" fill="#FFFFFF"></path>
                </g>
                <path d="M7.8,12.52 L56.45,12.52 C57.12,12.52 57.66,13.85 57.66,15.49 L57.66,15.49 C57.66,17.13 57.12,18.46 56.45,18.46 L7.8,18.46 C7.13,18.46 6.59,17.13 6.59,15.49 L6.59,15.49 C6.59,13.85 7.13,12.52 7.8,12.52 Z" id="路径" fill="#FFFFFF"></path>
                <g id="路径" transform="translate(60.000000, 13.000000)" fill="#0542BF">
                    <path d="M5.92,1.7 L1.09,1.7 C1.01,1.7 0.93,1.6 0.93,1.49 L0.93,0.93 C0.93,0.82 1,0.72 1.09,0.72 L5.92,0.72 C6,0.72 6.08,0.82 6.08,0.93 L6.08,1.49 C6.08,1.6 6,1.7 5.92,1.7 Z"></path>
                    <path d="M5.92,3.31 L1.09,3.31 C1.01,3.31 0.93,3.21 0.93,3.1 L0.93,2.53 C0.93,2.42 1,2.32 1.09,2.32 L5.92,2.32 C6,2.32 6.08,2.42 6.08,2.53 L6.08,3.09 C6.08,3.21 6,3.31 5.92,3.31 Z"></path>
                    <path d="M5.92,4.91 L1.09,4.91 C1.01,4.91 0.93,4.81 0.93,4.7 L0.93,4.14 C0.93,4.03 1,3.93 1.09,3.93 L5.92,3.93 C6,3.93 6.08,4.03 6.08,4.14 L6.08,4.7 C6.08,4.82 6,4.91 5.92,4.91 Z"></path>
                </g>
                <g id="椭圆形" transform="translate(51.000000, 4.000000)" fill="#EBF5FF">
                    <circle cx="1.4" cy="1.44" r="1.14"></circle>
                    <circle cx="7.67" cy="1.44" r="1.14"></circle>
                    <circle cx="13.94" cy="1.44" r="1.14"></circle>
                </g>
            </g>
            <rect id="矩形" fill="#D3E2F9" fill-rule="nonzero" x="0.86" y="160.52" width="245.9" height="1.47"></rect>
            <rect id="矩形" fill="#D3E2F9" fill-rule="nonzero" x="15.66" y="166.06" width="169.92" height="1.47"></rect>
            <ellipse id="椭圆形" fill="#E2EEFA" fill-rule="nonzero" cx="182.66" cy="178.95" rx="22.27" ry="2.53"></ellipse>
            <ellipse id="椭圆形" fill="#E2EEFA" fill-rule="nonzero" transform="translate(95.626043, 190.318429) rotate(-11.109928) translate(-95.626043, -190.318429) " cx="95.626043" cy="190.318429" rx="24.4710152" ry="5.65023441"></ellipse>
            <ellipse id="椭圆形" fill="#E2EEFA" fill-rule="nonzero" cx="49.99" cy="186.27" rx="8.62" ry="1.53"></ellipse>
            <g id="编组" transform="translate(37.000000, 51.000000)" fill-rule="nonzero">
                <path d="M0.95,25.32 L0.95,118.25 C0.95,121.01 3.19,123.25 5.95,123.25 L162.93,123.25 C165.69,123.25 167.93,121.01 167.93,118.25 L167.93,25.32 L0.95,25.32 Z" id="路径" fill="url(#linearGradient-2)"></path>
                <path d="M167.93,5.52 C167.93,2.76 165.69,0.52 162.93,0.52 L5.95,0.52 C3.19,0.52 0.95,2.76 0.95,5.52 L0.95,12.73 L167.93,12.73 L167.93,5.52 Z" id="路径" fill="#1D6CEF"></path>
                <rect id="矩形" fill="#B0D8FF" x="0.95" y="12.73" width="166.98" height="12.59"></rect>
            </g>
            <path d="M74.07,152.97 L44.05,152.97 C43.29,152.97 42.67,152.35 42.67,151.59 L42.67,120.77 C42.67,120.01 43.29,119.39 44.05,119.39 L74.07,119.39 C74.83,119.39 75.45,120.01 75.45,120.77 L75.45,151.59 C75.44,152.36 74.83,152.97 74.07,152.97 Z" id="路径" fill="#FFFFFF" fill-rule="nonzero"></path>
            <rect id="矩形" fill="#FFFFFF" fill-rule="nonzero" x="121.01" y="82.15" width="1" height="84.69"></rect>
            <g id="编组" transform="translate(84.000000, 80.000000)" fill-rule="nonzero">
                <path d="M32.08,33.75 L2.06,33.75 C1.3,33.75 0.68,33.13 0.68,32.37 L0.68,1.55 C0.68,0.79 1.3,0.17 2.06,0.17 L32.08,0.17 C32.84,0.17 33.46,0.79 33.46,1.55 L33.46,32.37 C33.45,33.14 32.84,33.75 32.08,33.75 Z" id="路径" fill="#FFFFFF"></path>
                <path d="M28.81,30.09 L5.33,30.09 C4.74,30.09 4.25,29.61 4.25,29.01 L4.25,4.9 C4.25,4.31 4.73,3.82 5.33,3.82 L28.81,3.82 C29.4,3.82 29.89,4.3 29.89,4.9 L29.89,29.01 C29.88,29.62 29.41,30.09 28.81,30.09 Z" id="路径" fill="#D5E1F7"></path>
                <g id="路径" transform="translate(6.000000, 8.000000)" fill="#FFFFFF">
                    <path d="M7.18,3.39 L1.14,3.39 C0.93,3.39 0.77,2.84 0.77,2.17 L0.77,2.17 C0.77,1.49 0.94,0.95 1.14,0.95 L7.18,0.95 C7.39,0.95 7.55,1.5 7.55,2.17 L7.55,2.17 C7.55,2.84 7.39,3.39 7.18,3.39 Z"></path>
                    <path d="M20.72,9.16 L1.14,9.16 C0.93,9.16 0.77,8.61 0.77,7.94 L0.77,7.94 C0.77,7.26 0.94,6.72 1.14,6.72 L20.72,6.72 C20.93,6.72 21.09,7.27 21.09,7.94 L21.09,7.94 C21.09,8.63 20.93,9.16 20.72,9.16 Z"></path>
                    <path d="M20.72,13.66 L1.14,13.66 C0.93,13.66 0.77,13.11 0.77,12.44 L0.77,12.44 C0.77,11.76 0.94,11.22 1.14,11.22 L20.72,11.22 C20.93,11.22 21.09,11.77 21.09,12.44 L21.09,12.44 C21.09,13.11 20.93,13.66 20.72,13.66 Z"></path>
                    <path d="M20.72,18.05 L1.14,18.05 C0.93,18.05 0.77,17.5 0.77,16.83 L0.77,16.83 C0.77,16.15 0.94,15.61 1.14,15.61 L20.72,15.61 C20.93,15.61 21.09,16.16 21.09,16.83 L21.09,16.83 C21.09,17.5 20.93,18.05 20.72,18.05 Z"></path>
                </g>
            </g>
            <g id="编组" transform="translate(84.000000, 121.000000)" fill-rule="nonzero">
                <path d="M31.86,38.61 L2.43,38.61 C1.63,38.61 0.98,37.96 0.98,37.16 L0.98,2.3 C0.98,1.5 1.63,0.85 2.43,0.85 L31.86,0.85 C32.66,0.85 33.31,1.5 33.31,2.3 L33.31,37.16 C33.31,37.96 32.66,38.61 31.86,38.61 Z" id="路径" fill="#B0D8FF"></path>
                <path d="M29.29,34.99 L5.47,34.99 C4.82,34.99 4.3,34.47 4.3,33.82 L4.3,5.65 C4.3,5 4.82,4.48 5.47,4.48 L29.29,4.48 C29.94,4.48 30.46,5 30.46,5.65 L30.46,33.82 C30.46,34.46 29.94,34.99 29.29,34.99 Z" id="路径" fill="#F8FCFF"></path>
                <g id="路径" transform="translate(6.000000, 6.000000)" fill="#8ABAFF">
                    <path d="M7.4,3.22 L1.36,3.22 C1.15,3.22 0.99,2.67 0.99,2 L0.99,2 C0.99,1.32 1.16,0.78 1.36,0.78 L7.4,0.78 C7.61,0.78 7.77,1.33 7.77,2 L7.77,2 C7.77,2.67 7.6,3.22 7.4,3.22 Z"></path>
                    <path d="M20.94,8.99 L1.36,8.99 C1.15,8.99 0.99,8.44 0.99,7.77 L0.99,7.77 C0.99,7.09 1.16,6.55 1.36,6.55 L20.94,6.55 C21.15,6.55 21.31,7.1 21.31,7.77 L21.31,7.77 C21.31,8.45 21.14,8.99 20.94,8.99 Z"></path>
                    <path d="M20.94,13.49 L1.36,13.49 C1.15,13.49 0.99,12.94 0.99,12.27 L0.99,12.27 C0.99,11.59 1.16,11.05 1.36,11.05 L20.94,11.05 C21.15,11.05 21.31,11.6 21.31,12.27 L21.31,12.27 C21.31,12.94 21.14,13.49 20.94,13.49 Z"></path>
                    <path d="M20.94,17.88 L1.36,17.88 C1.15,17.88 0.99,17.33 0.99,16.66 L0.99,16.66 C0.99,15.98 1.16,15.44 1.36,15.44 L20.94,15.44 C21.15,15.44 21.31,15.99 21.31,16.66 L21.31,16.66 C21.31,17.33 21.14,17.88 20.94,17.88 Z"></path>
                    <path d="M20.94,22.3 L1.36,22.3 C1.15,22.3 0.99,21.75 0.99,21.08 L0.99,21.08 C0.99,20.4 1.16,19.86 1.36,19.86 L20.94,19.86 C21.15,19.86 21.31,20.41 21.31,21.08 L21.31,21.08 C21.31,21.75 21.14,22.3 20.94,22.3 Z"></path>
                    <path d="M20.94,26.69 L1.36,26.69 C1.15,26.69 0.99,26.14 0.99,25.47 L0.99,25.47 C0.99,24.79 1.16,24.25 1.36,24.25 L20.94,24.25 C21.15,24.25 21.31,24.8 21.31,25.47 L21.31,25.47 C21.31,26.14 21.14,26.69 20.94,26.69 Z"></path>
                </g>
            </g>
            <g id="编组" transform="translate(127.000000, 79.000000)" fill-rule="nonzero">
                <g id="路径" transform="translate(1.000000, 44.000000)" fill="#D5E1F7">
                    <path d="M70.97,42.01 L1.93,42.01 C0.99,42.01 0.23,41.25 0.23,40.31 L0.23,20.41 C0.23,19.47 0.99,18.71 1.93,18.71 L70.97,18.71 C71.91,18.71 72.6701908,19.47 72.6701908,20.41 L72.6701908,40.31 C72.68,41.25 71.91,42.01 70.97,42.01 Z"></path>
                    <g id="编组">
                        <path d="M11.44,12.25 L0.89,12.25 C0.63,12.25 0.41,12.04 0.41,11.77 L0.41,1.22 C0.41,0.96 0.62,0.74 0.89,0.74 L11.44,0.74 C11.7,0.74 11.92,0.95 11.92,1.22 L11.92,11.77 C11.92,12.04 11.71,12.25 11.44,12.25 Z" id="路径"></path>
                        <path d="M26.46,12.25 L15.91,12.25 C15.65,12.25 15.43,12.04 15.43,11.77 L15.43,1.22 C15.43,0.96 15.64,0.74 15.91,0.74 L26.46,0.74 C26.72,0.74 26.94,0.95 26.94,1.22 L26.94,11.77 C26.94,12.04 26.72,12.25 26.46,12.25 Z" id="路径"></path>
                        <path d="M41.48,12.25 L30.93,12.25 C30.67,12.25 30.45,12.04 30.45,11.77 L30.45,1.22 C30.45,0.96 30.66,0.74 30.93,0.74 L41.48,0.74 C41.74,0.74 41.96,0.95 41.96,1.22 L41.96,11.77 C41.95,12.04 41.74,12.25 41.48,12.25 Z" id="路径"></path>
                        <path d="M56.49,12.25 L45.94,12.25 C45.68,12.25 45.46,12.04 45.46,11.77 L45.46,1.22 C45.46,0.96 45.67,0.74 45.94,0.74 L56.49,0.74 C56.75,0.74 56.97,0.95 56.97,1.22 L56.97,11.77 C56.97,12.04 56.76,12.25 56.49,12.25 Z" id="路径"></path>
                        <path d="M71.51,12.25 L60.96,12.25 C60.7,12.25 60.48,12.04 60.48,11.77 L60.48,1.22 C60.48,0.96 60.69,0.74 60.96,0.74 L71.51,0.74 C71.77,0.74 71.99,0.95 71.99,1.22 L71.99,11.77 C71.99,12.04 71.77,12.25 71.51,12.25 Z" id="路径"></path>
                    </g>
                </g>
                <path d="M71.72,37.43 L2.68,37.43 C1.74,37.43 0.98,36.67 0.98,35.73 L0.98,15.83 C0.98,14.89 1.74,14.13 2.68,14.13 L71.72,14.13 C72.66,14.13 73.42,14.89 73.42,15.83 L73.42,35.73 C73.42,36.67 72.66,37.43 71.72,37.43 Z" id="路径" fill="#D5E1F7"></path>
                <g id="路径" transform="translate(0.000000, 26.000000)">
                    <path d="M71.28,24.17 L2.24,24.17 C1.3,24.17 0.54,23.41 0.54,22.47 L0.54,2.57 C0.54,1.63 1.3,0.87 2.24,0.87 L71.28,0.87 C72.22,0.87 72.9801933,1.63 72.9801933,2.57 L72.9801933,22.47 C72.99,23.41 72.23,24.17 71.28,24.17 Z" fill="#FFFFFF"></path>
                    <g id="编组" transform="translate(2.000000, 3.000000)">
                        <path d="M21.95,3.41 L1.93,3.41 C1.25,3.41 0.71,2.86 0.71,2.19 L0.71,2.19 C0.71,1.51 1.26,0.97 1.93,0.97 L21.95,0.97 C22.63,0.97 23.17,1.52 23.17,2.19 L23.17,2.19 C23.17,2.86 22.62,3.41 21.95,3.41 Z" id="路径" fill="#8ABAFF"></path>
                        <path d="M66.82,9.18 L1.92,9.18 C1.24,9.18 0.7,8.63 0.7,7.96 L0.7,7.96 C0.7,7.28 1.25,6.74 1.92,6.74 L66.82,6.74 C67.5,6.74 68.0402649,7.29 68.0402649,7.96 L68.0402649,7.96 C68.05,8.64 67.5,9.18 66.82,9.18 Z" id="路径" fill="#D5E1F7"></path>
                        <path d="M66.82,13.68 L1.92,13.68 C1.24,13.68 0.7,13.13 0.7,12.46 L0.7,12.46 C0.7,11.78 1.25,11.24 1.92,11.24 L66.82,11.24 C67.5,11.24 68.0402649,11.79 68.0402649,12.46 L68.0402649,12.46 C68.05,13.13 67.5,13.68 66.82,13.68 Z" id="路径" fill="#EBF5FF"></path>
                        <path d="M66.82,18.07 L1.92,18.07 C1.24,18.07 0.7,17.52 0.7,16.85 L0.7,16.85 C0.7,16.17 1.25,15.63 1.92,15.63 L66.82,15.63 C67.5,15.63 68.0402649,16.18 68.0402649,16.85 L68.0402649,16.85 C68.05,17.52 67.5,18.07 66.82,18.07 Z" id="路径" fill="#EBF5FF"></path>
                    </g>
                </g>
                <g id="路径" transform="translate(0.000000, 53.000000)">
                    <path d="M71.28,38.35 L2.24,38.35 C1.3,38.35 0.54,37.59 0.54,36.65 L0.54,16.75 C0.54,15.81 1.3,15.05 2.24,15.05 L71.28,15.05 C72.22,15.05 72.9801933,15.81 72.9801933,16.75 L72.9801933,36.65 C72.99,37.58 72.23,38.35 71.28,38.35 Z" fill="#FFFFFF"></path>
                    <g id="编组" fill="#EBF5FF">
                        <path d="M12,12.12 L1.44,12.12 C1.18,12.12 0.96,11.91 0.96,11.64 L0.96,1.09 C0.96,0.83 1.17,0.61 1.44,0.61 L11.99,0.61 C12.25,0.61 12.47,0.82 12.47,1.09 L12.47,11.64 C12.47,11.9 12.26,12.12 12,12.12 Z" id="路径"></path>
                        <path d="M27.01,12.12 L16.46,12.12 C16.2,12.12 15.98,11.91 15.98,11.64 L15.98,1.09 C15.98,0.83 16.19,0.61 16.46,0.61 L27.01,0.61 C27.27,0.61 27.49,0.82 27.49,1.09 L27.49,11.64 C27.49,11.9 27.28,12.12 27.01,12.12 Z" id="路径"></path>
                        <path d="M42.03,12.12 L31.48,12.12 C31.22,12.12 31,11.91 31,11.64 L31,1.09 C31,0.83 31.21,0.61 31.48,0.61 L42.03,0.61 C42.29,0.61 42.51,0.82 42.51,1.09 L42.51,11.64 C42.51,11.9 42.3,12.12 42.03,12.12 Z" id="路径"></path>
                        <path d="M57.05,12.12 L46.5,12.12 C46.24,12.12 46.02,11.91 46.02,11.64 L46.02,1.09 C46.02,0.83 46.23,0.61 46.5,0.61 L57.05,0.61 C57.31,0.61 57.53,0.82 57.53,1.09 L57.53,11.64 C57.53,11.9 57.31,12.12 57.05,12.12 Z" id="路径"></path>
                        <path d="M72.07,12.12 L61.52,12.12 C61.26,12.12 61.04,11.91 61.04,11.64 L61.04,1.09 C61.04,0.83 61.25,0.61 61.52,0.61 L72.07,0.61 C72.33,0.61 72.55,0.82 72.55,1.09 L72.55,11.64 C72.54,11.9 72.33,12.12 72.07,12.12 Z" id="路径"></path>
                    </g>
                    <g id="编组" transform="translate(2.000000, 17.000000)">
                        <path d="M21.95,3.14 L1.93,3.14 C1.25,3.14 0.71,2.59 0.71,1.92 L0.71,1.92 C0.71,1.24 1.26,0.7 1.93,0.7 L21.95,0.7 C22.63,0.7 23.17,1.25 23.17,1.92 L23.17,1.92 C23.17,2.59 22.62,3.14 21.95,3.14 Z" id="路径" fill="#D5E1F7"></path>
                        <path d="M66.82,8.91 L1.92,8.91 C1.24,8.91 0.7,8.36 0.7,7.69 L0.7,7.69 C0.7,7.01 1.25,6.47 1.92,6.47 L66.82,6.47 C67.5,6.47 68.0402649,7.02 68.0402649,7.69 L68.0402649,7.69 C68.05,8.36 67.5,8.91 66.82,8.91 Z" id="路径" fill="#8ABAFF"></path>
                        <path d="M66.82,13.41 L1.92,13.41 C1.24,13.41 0.7,12.86 0.7,12.19 L0.7,12.19 C0.7,11.51 1.25,10.97 1.92,10.97 L66.82,10.97 C67.5,10.97 68.0402649,11.52 68.0402649,12.19 L68.0402649,12.19 C68.05,12.86 67.5,13.41 66.82,13.41 Z" id="路径" fill="#D5E1F7"></path>
                        <path d="M66.82,17.79 L1.92,17.79 C1.24,17.79 0.7,17.24 0.7,16.57 L0.7,16.57 C0.7,15.89 1.25,15.35 1.92,15.35 L66.82,15.35 C67.5,15.35 68.0402649,15.9 68.0402649,16.57 L68.0402649,16.57 C68.05,17.24 67.5,17.79 66.82,17.79 Z" id="路径" fill="#EBF5FF"></path>
                    </g>
                </g>
                <path d="M71.28,24.28 L2.24,24.28 C1.3,24.28 0.54,23.52 0.54,22.58 L0.54,2.68 C0.54,1.74 1.3,0.98 2.24,0.98 L71.28,0.98 C72.22,0.98 72.9801933,1.74 72.9801933,2.68 L72.9801933,22.58 C72.99,23.52 72.23,24.28 71.28,24.28 Z" id="路径" fill="#FFFFFF"></path>
            </g>
            <path d="M77.76,141.84 L14.7,141.84 C13.89,141.84 13.24,141.19 13.24,140.38 L13.24,124.45 C13.24,123.64 13.89,122.99 14.7,122.99 L77.76,122.99 C78.57,122.99 79.22,123.64 79.22,124.45 L79.22,140.38 C79.22,141.19 78.57,141.84 77.76,141.84 Z" id="路径" fill="#B0D8FF" fill-rule="nonzero"></path>
            <path d="M76.93,141.09 L14.66,141.09 C13.87,141.09 13.24,140.45 13.24,139.67 L13.24,124.42 C13.24,123.63 13.88,123 14.66,123 L76.92,123 C77.71,123 78.3402286,123.64 78.3402286,124.42 L78.3402286,139.67 C78.35,140.45 77.71,141.09 76.93,141.09 Z" id="路径" fill="#EBF5FF" fill-rule="nonzero"></path>
            <path d="M74.61,114.29 L44.59,114.29 C43.83,114.29 43.21,113.67 43.21,112.91 L43.21,82.1 C43.21,81.34 43.83,80.72 44.59,80.72 L74.61,80.72 C75.37,80.72 75.99,81.34 75.99,82.1 L75.99,112.92 C75.98,113.68 75.37,114.29 74.61,114.29 Z" id="路径" fill="#D5E1F7" fill-rule="nonzero"></path>
            <path d="M74.07,113.75 L44.05,113.75 C43.29,113.75 42.67,113.13 42.67,112.37 L42.67,81.55 C42.67,80.79 43.29,80.17 44.05,80.17 L74.07,80.17 C74.83,80.17 75.45,80.79 75.45,81.55 L75.45,112.37 C75.44,113.14 74.83,113.75 74.07,113.75 Z" id="路径" fill="#FFFFFF" fill-rule="nonzero"></path>
            <path d="M46.11,66 L184.37,66 C186.27,66 187.81,67.63 187.81,69.65 L187.81,69.65 C187.81,71.67 186.27,73.3 184.37,73.3 L46.11,73.3 C44.21,73.3 42.67,71.67 42.67,69.65 L42.67,69.65 C42.67,67.63 44.21,66 46.11,66 Z" id="路径" fill="#FFFFFF" fill-rule="nonzero"></path>
            <g id="编组" transform="translate(46.000000, 67.000000)" stroke="#054AA9">
                <circle id="椭圆形" stroke-width="0.4194" fill="#D6E1FE" fill-rule="nonzero" cx="1.78" cy="1.86" r="1.58"></circle>
                <line x1="2.46" y1="3.29" x2="3.53" y2="5.37" id="路径" stroke-width="0.4194" stroke-linecap="round"></line>
                <path d="M1.12,2.19 C1.12,2.19 0.96,1.44 1.79,1.08" id="路径" stroke-width="0.1678" fill="#D6E1FE" fill-rule="nonzero" stroke-linecap="round"></path>
            </g>
            <g id="编组" transform="translate(190.000000, 67.000000)" fill="#0542BF" fill-rule="nonzero">
                <path d="M9.05,1.68 L1.08,1.68 C0.94,1.68 0.82,1.56 0.82,1.42 L0.82,0.73 C0.82,0.59 0.94,0.47 1.08,0.47 L9.05,0.47 C9.19,0.47 9.31,0.59 9.31,0.73 L9.31,1.42 C9.31,1.56 9.19,1.68 9.05,1.68 Z" id="路径"></path>
                <path d="M9.05,3.66 L1.08,3.66 C0.94,3.66 0.82,3.54 0.82,3.4 L0.82,2.7 C0.82,2.56 0.94,2.44 1.08,2.44 L9.05,2.44 C9.19,2.44 9.31,2.56 9.31,2.7 L9.31,3.39 C9.31,3.54 9.19,3.66 9.05,3.66 Z" id="路径"></path>
                <path d="M9.05,5.63 L1.08,5.63 C0.94,5.63 0.82,5.51 0.82,5.37 L0.82,4.68 C0.82,4.54 0.94,4.42 1.08,4.42 L9.05,4.42 C9.19,4.42 9.31,4.54 9.31,4.68 L9.31,5.37 C9.31,5.52 9.19,5.63 9.05,5.63 Z" id="路径"></path>
            </g>
            <rect id="矩形" fill="#FFFFFF" fill-rule="nonzero" x="79.48" y="82.15" width="1" height="84.69"></rect>
            <circle id="椭圆形" fill="#EBF5FF" fill-rule="nonzero" cx="179.09" cy="57.31" r="1.4"></circle>
            <circle id="椭圆形" fill="#EBF5FF" fill-rule="nonzero" cx="186.79" cy="57.31" r="1.4"></circle>
            <circle id="椭圆形" fill="#EBF5FF" fill-rule="nonzero" cx="194.49" cy="57.31" r="1.4"></circle>
            <g id="编组" transform="translate(16.000000, 127.000000)" stroke="#054AA9">
                <circle id="椭圆形" stroke-width="0.4194" fill="#D6E1FE" fill-rule="nonzero" cx="4.32" cy="3.72" r="3.52"></circle>
                <line x1="5.84" y1="6.91" x2="8.22" y2="11.54" id="路径" stroke-width="0.4194" stroke-linecap="round"></line>
                <path d="M2.85,4.46 C2.85,4.46 2.49,2.8 4.35,1.99" id="路径" stroke-width="0.1678" fill="#D6E1FE" fill-rule="nonzero" stroke-linecap="round"></path>
            </g>
            <text id="token.defi" fill="#006DFE" fill-rule="nonzero" font-family="Helvetica" font-size="8.7027" font-weight="normal">
                <tspan x="29.0841" y="135.3473">token.defi</tspan>
            </text>
            <g id="编组" transform="translate(52.000000, 68.000000)" fill="#006DFE" fill-rule="nonzero">
                <path d="M1.05,1.43 L1.05,2.44 C1.05,2.51 1.05,2.56 1.06,2.6 C1.07,2.64 1.08,2.68 1.1,2.7 C1.12,2.72 1.15,2.74 1.18,2.75 C1.21,2.76 1.26,2.76 1.31,2.76 C1.38,2.76 1.44,2.75 1.49,2.74 L1.49,3.21 C1.45,3.22 1.4,3.22 1.35,3.22 C1.3,3.22 1.25,3.23 1.2,3.23 C1.06,3.23 0.94,3.22 0.85,3.2 C0.76,3.18 0.68,3.14 0.62,3.08 C0.56,3.02 0.52,2.95 0.49,2.85 C0.46,2.75 0.45,2.63 0.45,2.48 L0.45,1.42 L0.15,1.42 L0.15,0.94 L0.45,0.94 L0.45,0.4 L1.06,0.4 L1.06,0.94 L1.53,0.94 L1.53,1.42 L1.05,1.42 L1.05,1.43 Z" id="路径"></path>
                <path d="M2.89,3.26 C2.71,3.26 2.56,3.24 2.42,3.21 C2.28,3.17 2.17,3.11 2.07,3.02 C1.98,2.93 1.9,2.81 1.85,2.66 C1.8,2.51 1.77,2.32 1.77,2.09 C1.77,1.86 1.8,1.67 1.85,1.52 C1.9,1.37 1.97,1.25 2.07,1.16 C2.16,1.07 2.28,1.01 2.42,0.97 C2.56,0.93 2.72,0.92 2.89,0.92 C3.07,0.92 3.22,0.94 3.36,0.97 C3.5,1.01 3.61,1.07 3.71,1.16 C3.8,1.25 3.88,1.37 3.93,1.52 C3.98,1.67 4,1.86 4,2.09 C4,2.32 3.97,2.51 3.92,2.66 C3.87,2.81 3.8,2.93 3.7,3.02 C3.61,3.11 3.49,3.17 3.35,3.21 C3.22,3.24 3.07,3.26 2.89,3.26 Z M2.89,2.8 C2.98,2.8 3.06,2.79 3.12,2.77 C3.18,2.75 3.23,2.71 3.27,2.65 C3.31,2.6 3.33,2.52 3.35,2.43 C3.37,2.34 3.37,2.22 3.37,2.09 C3.37,1.96 3.36,1.84 3.34,1.75 C3.32,1.66 3.3,1.58 3.26,1.53 C3.22,1.47 3.17,1.43 3.11,1.41 C3.05,1.39 2.97,1.37 2.88,1.37 C2.79,1.37 2.71,1.38 2.65,1.41 C2.59,1.43 2.54,1.47 2.5,1.53 C2.46,1.59 2.44,1.66 2.42,1.75 C2.4,1.84 2.4,1.96 2.4,2.09 C2.4,2.22 2.41,2.34 2.42,2.43 C2.44,2.52 2.46,2.6 2.5,2.65 C2.54,2.7 2.59,2.74 2.65,2.77 C2.71,2.8 2.8,2.8 2.89,2.8 Z" id="形状"></path>
                <polygon id="路径" points="6.56 3.22 5.82 3.22 5.21 2.25 5.11 2.25 5.11 3.22 4.5 3.22 4.5 0.03 5.11 0.03 5.11 1.79 5.24 1.79 5.83 0.95 6.54 0.95 5.73 2.01"></polygon>
                <path d="M8.77,1.9 C8.77,1.96 8.77,2.03 8.76,2.08 C8.76,2.14 8.75,2.18 8.75,2.21 L7.29,2.3 C7.3,2.46 7.36,2.58 7.45,2.66 C7.55,2.74 7.7,2.77 7.9,2.77 C7.97,2.77 8.04,2.77 8.11,2.76 C8.18,2.75 8.25,2.74 8.32,2.72 C8.39,2.71 8.45,2.69 8.51,2.67 C8.57,2.65 8.61,2.63 8.65,2.61 L8.65,3.09 C8.62,3.11 8.57,3.13 8.51,3.15 C8.45,3.17 8.39,3.19 8.31,3.2 C8.23,3.21 8.15,3.23 8.06,3.24 C7.97,3.25 7.87,3.25 7.78,3.25 C7.61,3.25 7.45,3.23 7.31,3.2 C7.17,3.16 7.06,3.1 6.96,3.01 C6.87,2.92 6.79,2.8 6.74,2.65 C6.69,2.5 6.66,2.31 6.66,2.08 C6.66,1.85 6.69,1.66 6.74,1.51 C6.79,1.36 6.86,1.24 6.96,1.15 C7.06,1.06 7.17,1 7.31,0.96 C7.45,0.92 7.61,0.91 7.78,0.91 C7.98,0.91 8.14,0.93 8.26,0.98 C8.38,1.03 8.49,1.1 8.56,1.19 C8.63,1.28 8.68,1.38 8.71,1.5 C8.76,1.63 8.77,1.76 8.77,1.9 Z M8.22,1.82 C8.22,1.76 8.22,1.7 8.21,1.65 C8.2,1.6 8.18,1.55 8.15,1.51 C8.12,1.47 8.08,1.44 8.02,1.41 C7.97,1.39 7.89,1.37 7.8,1.37 C7.7,1.37 7.63,1.38 7.56,1.4 C7.49,1.42 7.45,1.45 7.41,1.49 C7.37,1.53 7.34,1.59 7.32,1.65 C7.3,1.71 7.29,1.79 7.29,1.88 L8.22,1.82 Z" id="形状"></path>
                <path d="M10.58,0.91 C10.72,0.91 10.84,0.93 10.93,0.96 C11.03,0.99 11.1,1.04 11.16,1.11 C11.22,1.17 11.26,1.25 11.29,1.35 C11.31,1.44 11.33,1.55 11.33,1.68 L11.33,3.23 L10.72,3.23 L10.72,1.84 C10.72,1.76 10.71,1.7 10.7,1.64 C10.69,1.59 10.67,1.54 10.64,1.51 C10.61,1.48 10.58,1.45 10.53,1.44 C10.48,1.42 10.42,1.42 10.34,1.42 C10.21,1.42 10.11,1.44 10.03,1.49 C9.95,1.53 9.89,1.62 9.86,1.73 L9.86,3.23 L9.25,3.23 L9.25,0.96 L9.86,0.96 L9.86,1.23 C9.92,1.12 10.01,1.04 10.14,0.99 C10.27,0.94 10.41,0.91 10.58,0.91 Z" id="路径"></path>
                <path d="M12.32,3.24 C12.24,3.24 12.17,3.24 12.12,3.23 C12.07,3.22 12.03,3.2 12.01,3.18 C11.99,3.15 11.97,3.11 11.96,3.07 C11.95,3.02 11.95,2.96 11.95,2.88 C11.95,2.8 11.95,2.73 11.96,2.68 C11.97,2.63 11.99,2.59 12.01,2.57 C12.04,2.54 12.07,2.53 12.12,2.52 C12.17,2.51 12.23,2.51 12.32,2.51 C12.4,2.51 12.46,2.51 12.51,2.52 C12.56,2.53 12.6,2.55 12.62,2.57 C12.65,2.6 12.66,2.63 12.67,2.68 C12.68,2.73 12.68,2.79 12.68,2.88 C12.68,2.97 12.68,3.03 12.67,3.07 C12.66,3.12 12.64,3.16 12.62,3.18 C12.59,3.21 12.56,3.23 12.51,3.23 C12.46,3.24 12.4,3.24 12.32,3.24 Z" id="路径"></path>
                <path d="M15.22,0.03 L15.22,3.22 L14.67,3.22 L14.62,2.91 C14.58,3.01 14.5,3.1 14.4,3.17 C14.3,3.24 14.14,3.27 13.93,3.27 C13.74,3.27 13.59,3.24 13.48,3.19 C13.37,3.14 13.27,3.06 13.2,2.96 C13.13,2.86 13.09,2.73 13.06,2.59 C13.04,2.44 13.02,2.28 13.02,2.1 C13.02,1.94 13.03,1.79 13.06,1.64 C13.09,1.5 13.13,1.37 13.2,1.27 C13.27,1.16 13.36,1.08 13.48,1.02 C13.6,0.96 13.75,0.93 13.93,0.93 C14.14,0.93 14.29,0.96 14.39,1.02 C14.49,1.08 14.57,1.16 14.61,1.26 L14.61,0.05 L15.22,0.05 L15.22,0.03 Z M14.13,2.8 C14.23,2.8 14.32,2.78 14.39,2.75 C14.46,2.72 14.51,2.67 14.55,2.61 C14.59,2.55 14.62,2.47 14.63,2.39 C14.65,2.3 14.65,2.2 14.65,2.09 C14.65,1.98 14.64,1.88 14.63,1.79 C14.61,1.7 14.59,1.63 14.55,1.56 C14.51,1.49 14.46,1.45 14.39,1.41 C14.32,1.37 14.24,1.36 14.13,1.36 C14.02,1.36 13.94,1.38 13.88,1.42 C13.82,1.46 13.77,1.51 13.74,1.58 C13.71,1.65 13.69,1.72 13.68,1.81 C13.67,1.9 13.67,1.99 13.67,2.09 C13.67,2.19 13.67,2.29 13.68,2.38 C13.69,2.47 13.71,2.54 13.74,2.61 C13.77,2.68 13.82,2.72 13.89,2.76 C13.94,2.78 14.02,2.8 14.13,2.8 Z" id="形状"></path>
                <path d="M17.81,1.9 C17.81,1.96 17.81,2.03 17.8,2.08 C17.8,2.14 17.79,2.18 17.79,2.21 L16.33,2.3 C16.34,2.46 16.4,2.58 16.49,2.66 C16.59,2.74 16.74,2.77 16.94,2.77 C17.01,2.77 17.08,2.77 17.15,2.76 C17.22,2.75 17.29,2.74 17.36,2.72 C17.43,2.71 17.49,2.69 17.55,2.67 C17.61,2.65 17.65,2.63 17.69,2.61 L17.69,3.09 C17.66,3.11 17.61,3.13 17.55,3.15 C17.49,3.17 17.43,3.19 17.35,3.2 C17.27,3.21 17.19,3.23 17.1,3.24 C17.01,3.25 16.91,3.25 16.82,3.25 C16.65,3.25 16.49,3.23 16.35,3.2 C16.21,3.16 16.1,3.1 16,3.01 C15.91,2.92 15.83,2.8 15.78,2.65 C15.73,2.5 15.7,2.31 15.7,2.08 C15.7,1.85 15.73,1.66 15.78,1.51 C15.83,1.36 15.9,1.24 16,1.15 C16.1,1.06 16.21,1 16.35,0.96 C16.49,0.92 16.65,0.91 16.82,0.91 C17.02,0.91 17.18,0.93 17.3,0.98 C17.42,1.03 17.53,1.1 17.6,1.19 C17.67,1.28 17.72,1.38 17.75,1.5 C17.8,1.63 17.81,1.76 17.81,1.9 Z M17.26,1.82 C17.26,1.76 17.26,1.7 17.25,1.65 C17.24,1.6 17.22,1.55 17.19,1.51 C17.16,1.47 17.12,1.44 17.06,1.41 C17.01,1.39 16.93,1.37 16.84,1.37 C16.74,1.37 16.67,1.38 16.6,1.4 C16.53,1.42 16.49,1.45 16.45,1.49 C16.41,1.53 16.38,1.59 16.36,1.65 C16.34,1.71 16.33,1.79 16.33,1.88 L17.26,1.82 Z" id="形状"></path>
                <path d="M18.4,0.93 C18.4,0.73 18.42,0.58 18.46,0.46 C18.5,0.34 18.55,0.25 18.62,0.18 C18.69,0.11 18.78,0.07 18.88,0.05 C18.98,0.03 19.11,0.02 19.24,0.02 C19.28,0.02 19.32,0.02 19.36,0.02 C19.4,0.02 19.43,0.03 19.47,0.03 L19.47,0.47 C19.44,0.46 19.41,0.46 19.39,0.46 C19.37,0.46 19.34,0.46 19.31,0.46 C19.25,0.46 19.2,0.47 19.16,0.48 C19.12,0.49 19.09,0.52 19.07,0.56 C19.05,0.6 19.03,0.65 19.02,0.71 C19.01,0.77 19.01,0.86 19.01,0.96 L19.46,0.96 L19.46,1.43 L19.01,1.43 L19.01,3.22 L18.4,3.22 L18.4,1.43 L18.05,1.43 L18.05,0.96 L18.4,0.96 L18.4,0.93 Z M20.08,0.64 C20.01,0.64 19.95,0.64 19.91,0.63 C19.87,0.62 19.83,0.61 19.81,0.59 C19.78,0.57 19.77,0.54 19.76,0.49 C19.75,0.44 19.75,0.39 19.75,0.32 C19.75,0.25 19.75,0.19 19.76,0.15 C19.77,0.11 19.79,0.08 19.81,0.05 C19.83,0.03 19.87,0.01 19.91,0.01 C19.95,0 20.01,0 20.08,0 C20.15,0 20.21,0 20.25,0.01 C20.29,0.02 20.33,0.03 20.35,0.05 C20.37,0.07 20.39,0.1 20.4,0.15 C20.41,0.2 20.41,0.25 20.41,0.32 C20.41,0.39 20.41,0.45 20.4,0.49 C20.39,0.53 20.37,0.56 20.35,0.59 C20.32,0.61 20.29,0.63 20.25,0.63 C20.21,0.63 20.15,0.64 20.08,0.64 Z M19.77,0.95 L20.38,0.95 L20.38,3.22 L19.77,3.22 L19.77,0.95 Z" id="形状"></path>
            </g>
            <g id="编组" transform="translate(199.000000, 86.000000)" fill-rule="nonzero">
                <path d="M21.51,85 C24.72,85 27.97,85.2 31.17,84.93 C33.14,84.76 35.32,83.75 37.23,84.55 C38.89,85.25 39.78,85.86 39.43,87.93 C38.62,92.76 27.08,93.27 23.38,93.05 C20.67,92.89 5.44,91.62 7.61,87.1 C9.34,83.49 19.24,85.01 21.51,85 Z" id="路径" fill="#E2EEFA"></path>
                <g id="路径" transform="translate(7.000000, 0.000000)">
                    <path d="M24.9,86.58 C26.72,86.1 27.57,84.34 27.57,84.34 L31.21,83.48 C32.39,84.98 32.07,86.05 32.07,86.05 C32.07,86.05 28.36,88.27 27.44,88.54 C25.64,89.08 23.31,88.61 23.31,88.61 C23.31,88.61 21.71,88.29 22.24,87.54 C22.77,86.79 24.22,86.76 24.9,86.58 Z" fill="#FFAB00"></path>
                    <path d="M24.65,16.16 C24.65,16.16 25.51,22.04 27.09,32.04 C27.47,34.44 22.7,35.97 22.7,35.97 L22.8,29.52 L24.65,16.16 Z" fill="#F8C4B8"></path>
                    <path d="M23.93,21.4 C24.34,25.63 25.14,29.77 26.42,33.84 C25.18,35.18 22.71,35.97 22.71,35.97 L22.81,29.52 L23.93,21.4 Z" fill="#000000" opacity="0.05"></path>
                    <path d="M3.04,85.42 C3.37,85.44 6.25,86 6.25,86 L10.05,86.79 L10.35,88.79 C9.98,90.13 8.15,89.91 7.71,89.88 C7.27,89.85 2.61,88.3 2.61,88.3 C1.91,87.95 1.27,87.57 1.07,87.22 C0.1,85.53 2.77,85.4 3.04,85.42 Z" fill="#FFAB00"></path>
                    <path d="M23.45,39.83 C24.48,42.77 24.73,45.92 24.18,48.98 L25.22,66.8 L31.21,83.48 C29.72,85.77 27.57,84.34 27.57,84.34 L20.18,67.88 L12.42,42.51 L23.02,38.61 L23.45,39.83 Z" fill="#1E2889"></path>
                    <path d="M18.74,63.16 L13.44,45.82 C16.12,47.57 19.14,50.42 23.18,50.42 C17.52,53.31 18.78,62.32 18.74,63.16 Z" fill="#18247A"></path>
                    <path d="M11.27,41.35 L15.39,43.93 L24.04,49.93 L17.77,52.04 C17.77,52.04 9.79,64.25 10.05,65.31 C10.31,66.37 10.56,87.52 10.21,87.72 C9.86,87.93 7.16,88.61 6.42,86.05 L4.66,65.24 C4.64,64.37 4.78,63.49 5.07,62.67 L11.27,41.35 Z" fill="#1E2889"></path>
                    <path d="M11.27,41.35 L13.55,42.78 C13.44,42.98 13.35,43.21 13.29,43.47 C11.33,51.5 6.82,58.9 6.54,67.27 C6.41,71.29 6.78,75.32 6.68,79.34 C6.62,81.88 6.57,84.42 6.82,86.94 C6.65,86.7 6.51,86.41 6.4,86.05 L4.64,65.24 C4.62,64.37 4.76,63.49 5.05,62.67 L11.27,41.35 Z" fill="#18247A"></path>
                    <path d="M15.13,16.47 C19.05,15.33 22.72,14.98 22.72,14.98 C25.92,15.97 25.35,20.62 25.5,21.39 C25.65,22.16 23.04,36.68 23.04,36.68 L24.15,42.22 C24.15,42.22 25.17,42.11 19.55,43.35 C13.92,44.59 10.96,42.89 10.96,42.89 L11.47,36.17 L11.92,28.67 C11.92,28.67 10.04,26.81 9.57,24.93 C9.36,24.07 9.9,23.06 11.39,21.08 C12.03,20.22 12.57,17.22 15.13,16.47 Z" fill="#006DFE"></path>
                    <path d="M21.76,15.08 C21.74,16.76 16.93,17.41 16.95,15.72 L15.77,9.5 L21.42,9.57 L21.76,15.08 Z" fill="#F8C4B8"></path>
                    <path d="M23.11,5.34 L22.54,10.06 C22.51,12.61 17.93,13.97 17.93,13.97 C15.47,13.94 13.68,12.78 13.72,10.19 L13.8,3.65 L23.11,5.34 Z" fill="#F8C4B8"></path>
                    <path d="M15.98,0.45 C17.41,-0.16 22.5,-0.28 23.3,3.3 C26.25,16.47 24.22,18.61 24.22,18.61 C24.22,18.61 19.89,19.84 18.77,18.93 C17.23,17.68 14.98,9.81 15.01,7.82 C15.03,5.83 13.78,5.5 13.78,5.5 C10.72,3.33 13.94,1.31 15.98,0.45 Z" fill="#191E56"></path>
                    <path d="M16.22,8.17 C16.35,9.29 15.59,10.51 14.69,10.09 L14.72,7.93 C14.72,7.92 16.05,6.65 16.22,8.17 Z" fill="#F8C4B8"></path>
                </g>
                <path d="M16.08,26.38 C16.08,26.38 13.25,35.17 3.58,25.8 C3.58,25.8 3.19,21.7 1.95,20.07 L0.94,20.07 L0.94,26.5 C0.94,26.5 6.59,32.92 9.69,33.46 C12.79,34 16.94,33.77 19.31,28.51 L16.08,26.38 Z" id="路径" fill="#FFACA6"></path>
                <path d="M14.81,26.83 C14.81,26.83 15.81,24.28 17.31,21.49 C18.81,18.7 19.78,16.27 22.69,17.66 C25.6,19.05 19.95,30.08 19.95,30.08 C19.95,30.08 16.75,31 14.81,26.83 Z" id="路径" fill="#B0D8FF"></path>
            </g>
            <g id="编组" transform="translate(50.000000, 83.000000)" fill="#1E2889" fill-rule="nonzero">
                <path d="M14.2,13.22 L12.97,13.22 C12.67,13.22 12.43,12.98 12.43,12.68 C12.43,12.38 12.67,12.14 12.97,12.14 L14.2,12.14 C15.79,12.14 17.09,10.84 17.09,9.25 C17.09,7.66 15.79,6.36 14.2,6.36 C14.05,6.36 13.9,6.37 13.74,6.4 L13.12,6.49 L13.12,5.82 C13.12,3.68 11.38,1.93 9.23,1.93 C7.09,1.93 5.34,3.67 5.34,5.82 L5.34,6.44 L4.73,6.39 C4.6,6.37 4.46,6.36 4.32,6.36 C2.73,6.36 1.43,7.65 1.43,9.25 C1.43,10.84 2.72,12.14 4.32,12.14 L5.53,12.14 C5.83,12.14 6.07,12.38 6.07,12.68 C6.07,12.98 5.83,13.22 5.53,13.22 L4.32,13.22 C2.13,13.22 0.36,11.44 0.36,9.26 C0.36,7.08 2.13,5.31 4.3,5.3 C4.58,2.8 6.68,0.88 9.23,0.88 C11.78,0.88 13.89,2.82 14.16,5.3 L14.19,5.3 C16.38,5.3 18.1500835,7.08 18.1500835,9.26 C18.16,11.44 16.38,13.22 14.2,13.22 L14.2,13.22 Z" id="路径"></path>
                <path d="M9.26,15.18 C8.96,15.18 8.72,14.94 8.72,14.64 L8.72,9.71 C8.72,9.41 8.96,9.17 9.26,9.17 C9.56,9.17 9.8,9.41 9.8,9.71 L9.8,14.64 C9.8,14.94 9.56,15.18 9.26,15.18 L9.26,15.18 Z" id="路径"></path>
                <path d="M11.46,12.09 C11.34,12.09 11.22,12.05 11.12,11.96 L8.92,10.12 C8.69,9.93 8.66,9.59 8.85,9.36 C9.04,9.13 9.38,9.1 9.61,9.29 L11.81,11.13 C12.04,11.32 12.07,11.66 11.88,11.89 C11.77,12.02 11.62,12.09 11.46,12.09 L11.46,12.09 Z" id="路径"></path>
                <path d="M7.06,12.06 C6.9,12.06 6.75,11.99 6.65,11.87 C6.46,11.64 6.49,11.3 6.72,11.11 L8.92,9.27 C9.15,9.08 9.49,9.11 9.68,9.34 C9.87,9.57 9.84,9.91 9.61,10.1 L7.41,11.94 C7.3,12.02 7.18,12.06 7.06,12.06 L7.06,12.06 Z" id="路径"></path>
            </g>
            <text id="IPFS" fill="#1E2889" fill-rule="nonzero" font-family="Helvetica" font-size="12" font-weight="normal">
                <tspan x="47.5" y="108.9711">IPFS</tspan>
            </text>
            <path d="M57.08,166.28 C57.01,166.28 56.94,166.28 56.87,166.29 C56.12,163.36 53.46,161.2 50.3,161.2 C47.12,161.2 44.44,163.39 43.71,166.35 C43.45,166.31 43.18,166.29 42.91,166.29 C40.17,166.29 37.95,168.51 37.95,171.25 C37.95,173.82 39.91,175.94 42.42,176.18 L42.42,176.2 L57.08,176.2 C59.82,176.2 62.04,173.98 62.04,171.24 C62.03,168.5 59.81,166.28 57.08,166.28 Z" id="路径" fill="url(#linearGradient-3)" fill-rule="nonzero"></path>
            <path d="M70.58,170.02 C70.49,170.02 70.41,170.02 70.32,170.03 C69.41,166.49 66.21,163.88 62.39,163.88 C58.55,163.88 55.32,166.53 54.44,170.1 C54.13,170.05 53.8,170.02 53.48,170.02 C50.18,170.02 47.5,172.7 47.5,176 C47.5,179.11 49.87,181.66 52.89,181.95 L52.89,181.98 L70.58,181.98 C73.88,181.98 76.56,179.3 76.56,176 C76.56,172.7 73.89,170.02 70.58,170.02 Z" id="路径" fill="url(#linearGradient-4)" fill-rule="nonzero"></path>
            <path d="M51.22,171.89 C51.13,171.89 51.05,171.89 50.96,171.9 C50.05,168.36 46.85,165.75 43.03,165.75 C39.19,165.75 35.96,168.4 35.08,171.97 C34.77,171.92 34.44,171.89 34.12,171.89 C30.82,171.89 28.14,174.57 28.14,177.87 C28.14,180.98 30.51,183.53 33.53,183.82 L33.53,183.85 L51.22,183.85 C54.52,183.85 57.2,181.17 57.2,177.87 C57.2,174.57 54.52,171.89 51.22,171.89 Z" id="路径" fill="url(#linearGradient-5)" fill-rule="nonzero"></path>
            <g id="编组" transform="translate(77.000000, 89.000000)" fill-rule="nonzero">
                <g id="路径" transform="translate(0.000000, 81.000000)">
                    <path d="M2.76,1.14 L4.54,5.86 C4.69,6.52 4.71,7.31 4.03,7.7 C4.03,7.7 3.58,7.96 3.09,8.13 C2.77,8.06 0.71,1.68 0.71,1.68 L0.73,1.64 C1.56,0.59 2.76,1.14 2.76,1.14 Z" fill="#008A8C"></path>
                    <polygon fill="#072758" points="3.1 8.14 0.72 1.69 0.41 1.87 2.81 8.26"></polygon>
                    <polygon fill="#FFFFFF" points="3.47 3.01 3.63 3.44 2.81 3.59 2.65 3.18"></polygon>
                    <polygon fill="#FFFFFF" points="3.82 3.92 3.97 4.35 3.15 4.51 3 4.09"></polygon>
                    <path d="M4.74,0.03 L2.76,1.14 L2.76,1.14 C2.65,1.62 2.82,2.11 3.2,2.42 L3.27,2.48 L5.46,1.92 L4.74,0.03 Z" fill="#F5B689"></path>
                </g>
                <path d="M20.55,51.22 C20.55,51.22 18.59,53.33 18.08,57.06 C17.74,59.54 18.67,63.46 18.77,66.54 C18.86,69.36 17.59,71.59 15.36,73.31 L4.74,81.03 L5.45,82.92 C5.45,82.92 19.98,80.74 23.8,74.23 C27.62,67.72 28.52,52.99 28.52,52.99 L20.55,51.22 Z" id="路径" fill="#260044"></path>
                <path d="M12.09,43.2 L6.63,55.4 C6.63,55.4 4.39,55.66 3.41,56.52 C2.9,56.97 2.92,57.87 3.06,58.62 C3.16,59.19 3.85,59.44 4.29,59.05 C4.89,58.53 5.66,57.94 6.17,57.86 C7.52,57.64 7.92,56.68 7.92,56.68 L15.76,44.39 L12.09,43.2 Z" id="路径" fill="#F5B689"></path>
                <path d="M39.63,18.68 L42.43,16.29 L40.26,4.47 L36.89,2.75 C36.89,2.75 37.26,2.1 38.09,2.38 C38.92,2.66 39.62,2.49 39.62,2.49 C39.62,2.49 40.25,1.71 39.06,1.18 C38.39,0.73 37.94,1.18 36,1.1 C36,0.8 38.56,0.09 38.56,0.09 C39.36,-0.17 41.4,1.41 41.4,1.41 C41.54,1.6 41.63,1.81 41.66,2.04 L41.98,4.23 C41.98,4.23 46.32,16.13 46.32,17.4 C46.32,18.67 43.89,20.41 43.89,20.41 L39.63,18.68 Z" id="路径" fill="#F5B689"></path>
                <path d="M24.59,52.45 C24.59,52.45 22.91,54.48 23.92,59.19 C24.56,62.2 27.4,65.98 29.3,68.59 C30.66,70.46 30.69,72.81 30.28,75.09 C28.72,83.75 31.21,94.32 31.21,94.32 L33.23,94.32 C33.23,94.32 36.26,78.83 37.16,67.95 C37.97,58.13 33.77,50.91 33.68,50.78 L24.59,52.45 Z" id="路径" fill="#3C0063"></path>
                <g transform="translate(33.000000, 0.000000)">
                    <g>
                        <rect id="矩形" fill="#F5AA00" transform="translate(6.078365, 1.947614) rotate(-81.656789) translate(-6.078365, -1.947614) " x="5.23337878" y="-1.25733167" width="1.68997158" height="6.40989221"></rect>
                        <rect id="矩形" fill="#FFFFFF" transform="translate(9.541413, 2.459221) rotate(-81.651120) translate(-9.541413, -2.459221) " x="8.69641508" y="1.95922117" width="1.68999611" height="1"></rect>
                        <path d="M9.37,3.28 C9.83,3.35 10.23,3.31 10.34,2.56 C10.46,1.73 10.09,1.66 9.62,1.59 L9.37,3.28 Z" id="路径" fill="#072758"></path>
                        <polygon id="路径" fill="#FFFFFF" points="2.79 2.32 1.56 1.57 1.64 0.96 3.03 0.64"></polygon>
                        <polygon id="路径" fill="#003B61" points="1.56 1.57 1.02 1.19 1.64 0.96"></polygon>
                    </g>
                    <rect id="矩形" fill="#F08D00" transform="translate(5.960790, 2.024878) rotate(-81.668127) translate(-5.960790, -2.024878) " x="5.46078975" y="-1.07498014" width="1" height="6.19971594"></rect>
                    <rect id="矩形" fill="#F08D00" transform="translate(6.077729, 1.206396) rotate(-81.656789) translate(-6.077729, -1.206396) " x="5.5777288" y="-1.89355169" width="1" height="6.19989575"></rect>
                </g>
                <path d="M19.63,28.52 C16.02,31.17 11.77,43.92 11.77,43.92 L14.94,45.7 L20.1,38.62 C20.1,38.62 20.6,46.81 19.37,53.1 C19.93,55.46 22.61,55.19 26.95,54.37 C31.29,53.55 34.13,51.68 34.13,51.68 C34.13,51.68 34.32,40.31 34.88,34.28 C35.44,28.25 34.33,27.61 35.85,27.81 C39.24,25.88 44.8,19.68 44.8,19.68 L39.64,18.68 L28.53,25.19 C28.52,25.18 23.09,26.62 19.63,28.52 Z" id="路径" fill="#9633FF"></path>
                <path d="M25.93,13.44 L28.61,16.09 C29.75,17.21 30.23,18.84 29.88,20.41 L29.57,21.82 L25.93,13.44 Z" id="路径" fill="#F5B689"></path>
                <path d="M22.68,12.44 C16.17,12.44 18.94,24.94 18.94,24.94 C18.94,24.94 20.1,33.04 22.68,36.3 C24.91,39.12 29.33,38.27 31.43,36.92 C32.45,36.26 33.6,35.82 34.81,35.67 C36.58,35.46 38.69,34.67 38.69,31.47 C38.69,28.46 35.1,26.13 32.73,24.47 C31.19,23.39 30.11,21.76 29.66,19.93 C28.91,16.85 27.06,12.44 22.68,12.44 Z" id="路径" fill="#270142"></path>
                <g id="路径" transform="translate(31.000000, 94.000000)">
                    <path d="M0.56,2.56 L5.61,2.55 C6.28,2.64 7.03,2.9 7.15,3.67 C7.15,3.67 7.24,4.19 7.22,4.7 C7.04,4.98 0.35,4.66 0.35,4.66 L0.32,4.63 C-0.39,3.5 0.56,2.56 0.56,2.56 Z" fill="#008A8C"></path>
                    <polygon fill="#003B61" points="7.22 4.71 0.35 4.67 0.41 5.03 7.23 5.03"></polygon>
                    <polygon fill="#FFFFFF" points="2.56 2.55 3.01 2.56 2.87 3.38 2.43 3.38"></polygon>
                    <polygon fill="#FFFFFF" points="3.53 2.55 3.99 2.56 3.84 3.38 3.4 3.38"></polygon>
                    <path d="M0.21,0.32 L0.56,2.57 L0.56,2.57 C0.97,2.84 1.49,2.86 1.91,2.61 L1.99,2.56 L2.23,0.32 L0.21,0.32 L0.21,0.32 Z" fill="#F5B689"></path>
                </g>
                <path d="M38.09,2.37 C37.26,2.09 36.89,2.74 36.89,2.74 L39.13,3.88 C39.16,3.87 39.19,3.85 39.22,3.84 C39.59,3.69 40.35,3.36 40.7,3.3 C40.5,3.09 38.51,2.5 38.09,2.37 Z" id="路径" fill="#F5B689"></path>
            </g>
            <g id="编组" transform="translate(106.000000, 0.000000)" fill-rule="nonzero">
                <path d="M30.2,19.46 L33.14,19.46 C35.89,19.46 38.38,21.08 39.5,23.6 L42.3,29.91 L36.48,32.7 L38.35,33.96 L39.38,43.54 L18.02,43.18 L17.21,19.32 L30.1,19.6 L30.2,19.46 Z" id="路径" fill="#F25FC1"></path>
                <path d="M27.86,14.62 C27.86,14.62 28.13,17.5 28.53,18.71 C28.85,19.58 30.2,19.46 30.2,19.46 C30.2,19.46 29.16,24.02 25.34,24.02 C21.52,24.02 20.93,20.11 20.93,20.11 L23.64,19.69 L22.39,15.53 L27.86,14.62 Z" id="路径" fill="#F2A080"></path>
                <path d="M29.41,8.24 L28.54,3.09 L19.64,7.06 L20.18,10.07 C20.18,10.07 20.87,17.41 25.61,16.54 C30.72,15.6 29.64,8.18 29.41,8.24 Z" id="路径" fill="#F5B689"></path>
                <path d="M42.3,29.91 L43.5,34.17 C44.38,37.28 43.44,40.62 41.07,42.83 L35.61,47.41 L33.86,42.29 L36.88,39.27 C37.87,38.28 38.17,36.79 37.63,35.49 L36.47,32.71 L42.3,29.91 Z" id="路径" fill="#F5B689"></path>
                <path d="M13.19,31.02 L12.52,33.09 C11.3,36.87 12.24,41.01 14.97,43.9 L18.28,47.41 L19.99,39.22 L15.27,31.02 L13.19,31.02 L13.19,31.02 Z" id="路径" fill="#F5B689"></path>
                <polygon id="路径" fill="#F25FC1" points="12.52 33.09 15.49 34.82 15.99 29.88 13.33 29.88"></polygon>
                <path d="M20.17,10.4 C25.89,11.61 29.12,5.23 29.12,5.23 C29.12,5.23 28.95,6.56 29.49,8.53 C31.42,6.03 30.16,2.88 30.16,2.88 C30.16,2.88 28.6,-0.56 21.66,1.13 C13.56,3.1 12.22,14.22 12.22,14.22 C12.22,14.22 11.63,16.64 13.71,20.52 C14.3,21.62 14.27,22.97 13.51,23.96 C11.78,26.22 12.22,29.01 12.22,29.01 C12.22,29.01 12.39,30.46 13.63,31.42 C14.79,32.31 15.26,34.22 14.79,35.6 C13.79,38.57 14.64,40.26 14.64,40.26 C14.64,40.26 15.18,42.17 18.15,42.28 C22.47,42.45 22.38,39.02 21.99,37.08 C21.84,36.34 22.03,35.58 22.54,35.02 C23.07,34.43 23.65,33.51 23.68,32.26 C23.71,31.21 23.3,30.1 22.84,29.2 C22.25,28.03 22.35,26.64 23.13,25.58 C24.23,24.08 25.66,21.1 24.86,19.16 C23.51,15.89 21.2,14.8 20.17,10.4 Z" id="路径" fill="#000000"></path>
                <g transform="translate(17.000000, 35.000000)">
                    <rect id="矩形" fill="#7B00FC" x="0.2" y="0.74" width="21.64" height="12.95"></rect>
                    <rect id="矩形" fill="#CDB8CC" x="0.2" y="13.15" width="21.64" height="1.08"></rect>
                    <path d="M10.16,6.02 C10.16,6.5 10.55,6.89 11.03,6.89 C11.51,6.89 11.9,6.5 11.9,6.02 C11.9,5.54 11.51,5.15 11.03,5.15 C10.55,5.15 10.16,5.54 10.16,6.02 Z" id="路径" fill="#FFFFFF"></path>
                </g>
                <path d="M54.34,45.23 C57.13,53.61 20.14,57.36 20.14,57.36 L19.26,52.62 C19.26,52.63 51.55,36.85 54.34,45.23 Z" id="路径" fill="#072758"></path>
                <g transform="translate(0.000000, 53.000000)">
                    <polygon id="路径" fill="#F5B689" points="17.9 4.35 12.6 4.66 11.59 3.56 12.1 1.56 17.12 0.84"></polygon>
                    <g>
                        <path d="M12.6,1.49 L7.2,0.84 C7.2,0.84 5.11,0.29 3.24,0.6 L3.24,5.5 C4.64,5.66 6.03,5.48 6.03,5.48 L12.6,4.67 L12.53,4.56 C11.92,3.64 11.95,2.37 12.6,1.49 Z" id="路径" fill="#FF9C14"></path>
                        <path d="M0.5,2.75 C0.86,1.37 2.02,0.79 3.27,0.59 L3.27,5.5 C1.65,5.31 0,4.67 0.5,2.75 Z" id="路径" fill="#FFFFFF"></path>
                        <g transform="translate(9.000000, 1.000000)">
                            <line x1="0.68" y1="0.85" x2="0.68" y2="2.95" id="路径" fill="#F5B689"></line>
                            <rect id="矩形" fill="#FFFFFF" x="0.41" y="0.85" width="1" height="2.11"></rect>
                        </g>
                        <g transform="translate(7.000000, 1.000000)">
                            <line x1="1.35" y1="0.85" x2="1.35" y2="2.95" id="路径" fill="#F5B689"></line>
                            <rect id="矩形" fill="#FFFFFF" x="1.08" y="0.85" width="1" height="2.11"></rect>
                        </g>
                    </g>
                </g>
                <polygon id="路径" fill="#F4615D" points="19.26 51.91 20.24 58.02 17.91 58.47 16.74 52.63"></polygon>
                <path d="M29.4,8.47 C29.16,9.09 29.3,9.72 29.72,9.88 C30.13,10.04 30.66,9.66 30.9,9.04 C31.14,8.42 31,7.79 30.58,7.63 C30.17,7.47 29.64,7.85 29.4,8.47 Z" id="路径" fill="#F5B689"></path>
                <path d="M0.56,45.23 C-2.23,53.61 34.76,57.36 34.76,57.36 L35.64,52.62 C35.64,52.63 3.35,36.85 0.56,45.23 Z" id="路径" fill="#072758"></path>
                <g transform="translate(36.000000, 53.000000)">
                    <polygon id="路径" fill="#F5B689" points="0.99 4.35 6.3 4.66 7.3 3.56 6.79 1.56 1.78 0.84"></polygon>
                    <g transform="translate(6.000000, 0.000000)">
                        <path d="M9.67,0.6 C7.8,0.29 5.7,0.84 5.7,0.84 L0.3,1.49 C0.95,2.37 0.98,3.64 0.37,4.55 L0.3,4.66 L6.87,5.47 C6.87,5.47 8.27,5.65 9.68,5.49 L9.68,0.6 L9.67,0.6 Z" id="路径" fill="#FF9C14"></path>
                        <path d="M12.39,2.75 C12.03,1.37 10.87,0.79 9.62,0.59 L9.62,5.5 C11.25,5.31 12.9,4.67 12.39,2.75 Z" id="路径" fill="#FFFFFF"></path>
                        <g transform="translate(2.000000, 1.000000)">
                            <line x1="1.21" y1="0.85" x2="1.21" y2="2.95" id="路径" fill="#F5B689"></line>
                            <rect id="矩形" fill="#FFFFFF" x="0.94" y="0.85" width="1" height="2.11"></rect>
                        </g>
                        <g transform="translate(4.000000, 1.000000)">
                            <line x1="0.55" y1="0.85" x2="0.55" y2="2.95" id="路径" fill="#F5B689"></line>
                            <rect id="矩形" fill="#FFFFFF" x="0.28" y="0.85" width="1" height="2.11"></rect>
                        </g>
                    </g>
                </g>
                <polygon id="路径" fill="#F4615D" points="35.64 51.91 34.65 58.02 36.99 58.47 38.16 52.63"></polygon>
            </g>
            <rect id="Background" fill="url(#linearGradient-6)" x="132" y="84" width="16" height="16" rx="8"></rect>
            <path d="M139,93 L141,94.7487382 L141,95.8412445 L139,97 L139,93 Z M136,89 L144,89.0047522 L143.104,90.7715877 L140.896,90.7715877 L140.896,94 L139.104,92.1160554 L139.104,90.7795127 L136.896,90.7795127 L136,89 Z" id="路径-4" fill="#FFFFFF"></path>
            <circle id="椭圆形" fill="#EA4436" cx="141.5" cy="95.5" r="1"></circle>
        </g>
        <text id="Trust" font-family="ArialRoundedMTBold, Arial Rounded MT Bold" font-size="6" font-weight="normal" fill="#0A0A0A">
            <tspan x="152" y="90">Trust</tspan>
        </text>
        <text id="Domains" font-family="ArialRoundedMTBold, Arial Rounded MT Bold" font-size="6" font-weight="normal" fill="#0A0A0A">
            <tspan x="152" y="99">Domains</tspan>
        </text>
    </g>
</svg>