<?xml version="1.0" encoding="utf-8"?>
<svg viewBox="0 0 500 500" xmlns="http://www.w3.org/2000/svg" xmlns:bx="https://boxy-svg.com">
  <ellipse transform="matrix(1, -0.000055, 0.000055, 1, -242.698988, -157.261157)" cx="492.686" cy="407.302" rx="250" ry="250" style="fill: rgb(33, 43, 48);" bx:origin="0.5 0.5"/>
  <path d="M 164.731 347.488 C 160.188 347.488 155.657 345.225 151.126 342.962 L 49.407 254.703 L 159.032 161.918 C 168.161 155.128 179.523 155.128 188.556 164.181 C 195.317 173.233 195.251 184.549 186.121 191.337 L 110.756 254.702 L 178.569 313.542 C 187.616 320.332 187.535 333.91 180.678 340.699 C 176.107 345.225 171.548 347.488 164.731 347.488 Z M 348.781 347.488 L 458.406 254.702 L 354.414 166.445 C 345.366 159.654 334.005 159.654 324.862 168.708 C 317.991 177.758 317.923 189.075 326.97 195.863 L 394.784 254.702 L 321.692 318.069 C 312.562 324.857 312.482 338.436 319.255 345.225 C 323.775 349.751 328.304 352.014 335.121 352.014 C 339.666 352.014 344.224 349.751 348.781 347.488 Z M 253.185 374.645 L 295.485 141.55 C 297.827 130.236 291.064 121.182 279.716 118.919 C 268.37 116.656 256.967 123.446 256.898 134.761 L 212.325 367.855 C 209.985 379.171 216.748 388.223 228.095 390.486 L 230.367 390.486 C 241.729 390.486 250.858 383.697 253.185 374.645 Z M 253.185 374.645" p-id="6626" style="fill: rgb(10, 193, 143);" transform="matrix(0.999917, -0.012877, 0.012877, 0.999917, -3.256, 3.290695)" bx:origin="0.49 0.483"/>
</svg>